<svg width="17" height="22" viewBox="0 0 17 22" fill="none" xmlns="http://www.w3.org/2000/svg">
<path d="M1.33984 3.22705C1.33984 2.12248 2.23527 1.22705 3.33984 1.22705H9.41225C10.0005 1.22705 10.559 1.48607 10.939 1.93517L15.3946 7.20084C15.6831 7.5418 15.8492 7.96953 15.8663 8.41586L16.2626 18.7183C16.3052 19.826 15.4386 20.7571 14.3307 20.794L3.40647 21.1582C2.27642 21.1958 1.33984 20.29 1.33984 19.1593V3.22705Z" fill="#FCC63D"/>
<path d="M9.83984 1.22705H4.73984C3.54974 1.22705 2.95467 1.22705 2.50012 1.46926C2.10026 1.68231 1.77518 2.02226 1.57146 2.44041C1.33984 2.91576 1.33984 3.53805 1.33984 4.78261V17.6715C1.33984 18.9161 1.57146 20.0137 1.57146 20.0137C1.57146 20.0137 2.10026 20.7718 2.50012 20.9848C2.95467 21.2271 3.54974 21.2271 4.73984 21.2271H12.7959C12.7959 21.2271 14.2959 21.2271 15.2959 20.2271C16.2959 19.2271 16.2959 17.7292 16.2959 16.2271C16.2959 13.2271 16.2148 7.89372 16.2148 7.89372M9.83984 1.22705L16.2148 7.89372M9.83984 1.22705V6.11594C9.83984 6.73822 9.83984 7.04936 9.95566 7.28704C10.0575 7.49611 10.22 7.66608 10.42 7.77262C10.6472 7.89372 10.9447 7.89372 11.5398 7.89372H16.2148M5.58984 16.7826H8.24609M5.58984 12.3382H11.9648M5.58984 7.89372H6.65234" stroke="#21225F" stroke-width="1.1" stroke-linecap="round" stroke-linejoin="round"/>
</svg>
