<svg width="17" height="22" viewBox="0 0 17 22" fill="none" xmlns="http://www.w3.org/2000/svg">
<path d="M9.47786 1H4.39115C3.20414 1 2.61062 1 2.15725 1.24221C1.75844 1.45526 1.4342 1.79521 1.23101 2.21336C1 2.68871 1 3.311 1 4.55556V17.4444C1 18.689 1.23101 19.7867 1.23101 19.7867C1.23101 19.7867 1.75844 20.5448 2.15725 20.7578C2.61062 21 3.20414 21 4.39115 21H12.4262C12.4262 21 13.9223 21 14.9197 20C15.9171 19 15.9171 17.5022 15.9171 16C15.9171 13 15.8363 7.66667 15.8363 7.66667M9.47786 1L15.8363 7.66667M9.47786 1V5.88889C9.47786 6.51117 9.47786 6.82231 9.59338 7.05999C9.695 7.26906 9.85704 7.43903 10.0565 7.54557C10.2832 7.66667 10.5799 7.66667 11.1734 7.66667H15.8363M5.23893 16.5556H7.88826M5.23893 12.1111H11.5973M5.23893 7.66667H6.29867" stroke="#21225F" stroke-width="1.1" stroke-linecap="round" stroke-linejoin="round"/>
</svg>
