<svg width="29" height="29" viewBox="0 0 29 29" fill="none" xmlns="http://www.w3.org/2000/svg">
<path d="M8.97187 24.4915C6.97812 24.4915 5.34688 22.8603 5.34688 20.8665C5.34688 20.3681 5.75469 19.9603 6.25313 19.9603C6.75156 19.9603 7.15938 20.3681 7.15938 20.8665C7.15938 21.8634 7.975 22.679 8.97187 22.679C9.60625 22.679 10.1953 22.3392 10.5352 21.7954C10.6711 21.5688 10.8523 21.161 11.0562 20.7306C11.4414 19.8696 11.8719 18.8954 12.4156 18.1931C12.8461 17.6267 13.4805 17.0603 14.0922 16.4938C14.7039 15.9274 15.4062 15.2704 15.6328 14.8626C16.0859 14.0696 16.3125 13.186 16.3125 12.2798C16.3125 9.40244 13.9789 7.06885 11.1016 7.06885C8.22422 7.06885 5.89062 9.40244 5.89062 12.2798C5.89062 12.7782 5.48281 13.186 4.98438 13.186C4.48594 13.186 4.07812 12.7782 4.07812 12.2798C4.07812 8.40557 7.22734 5.25635 11.1016 5.25635C14.9758 5.25635 18.125 8.40557 18.125 12.2798C18.125 13.5032 17.8078 14.704 17.1961 15.7688C16.8336 16.4259 16.0859 17.1056 15.293 17.8306C14.7492 18.3517 14.1602 18.8728 13.8203 19.3032C13.4125 19.8243 13.0047 20.7306 12.6875 21.4556C12.4609 21.954 12.2797 22.3845 12.0758 22.7243C11.4414 23.8118 10.2406 24.4915 8.97187 24.4915Z" fill="#6982AB"/>
<path d="M7.70312 18.0345C7.20469 18.0345 6.79688 17.6267 6.79688 17.1282C6.79688 16.6298 7.20469 16.222 7.70312 16.222C8.15625 16.222 8.54141 15.8595 8.54141 15.3837C8.54141 14.9306 8.17891 14.5454 7.70312 14.5454C7.20469 14.5454 6.79688 14.1376 6.79688 13.6392V12.2798C6.79688 9.90088 8.72266 7.9751 11.1016 7.9751C13.4805 7.9751 15.4062 9.90088 15.4062 12.2798C15.4062 13.0274 15.225 13.7524 14.8625 14.3868C14.8398 14.4095 14.8398 14.4321 14.8172 14.4548C14.6359 14.7267 14.2055 15.1345 13.4805 15.8142L13.2086 16.0634C12.8461 16.4032 12.257 16.3806 11.9172 16.0181C11.5773 15.6556 11.6 15.0665 11.9625 14.7267L12.2344 14.5001C12.8234 13.9563 13.1859 13.6165 13.2992 13.4579C13.4805 13.0954 13.5938 12.6876 13.5938 12.2798C13.5938 10.8978 12.4836 9.7876 11.1016 9.7876C9.71953 9.7876 8.60938 10.8978 8.60938 12.2798V12.8915C9.62891 13.254 10.3539 14.2282 10.3539 15.3837C10.3539 16.8337 9.17578 18.0345 7.70312 18.0345Z" fill="#6982AB"/>
<path d="M19.2574 17.8306C19.1215 17.8306 18.9856 17.7853 18.8723 17.7173C18.4871 17.4907 18.3738 17.015 18.5778 16.6298C19.3254 15.3157 19.7332 13.8431 19.7332 12.3251C19.7332 10.7845 19.3254 9.28918 18.5551 7.97512C18.3285 7.58996 18.4645 7.11418 18.827 6.88762C19.2121 6.66106 19.6879 6.79699 19.9145 7.15949C20.8434 8.72278 21.3192 10.5126 21.3192 12.3251C21.3192 14.115 20.8434 15.8595 19.9598 17.4228C19.8012 17.6947 19.5293 17.8306 19.2574 17.8306Z" fill="#6982AB"/>
<path d="M21.7277 20.4133C21.5464 20.4133 21.3878 20.368 21.2292 20.2547C20.8214 19.9828 20.7081 19.4164 20.98 18.9859C22.3167 17.0148 23.0191 14.7266 23.0191 12.325C23.0191 9.92343 22.2941 7.58983 20.9347 5.61874C20.6628 5.21092 20.7535 4.64452 21.1613 4.34999C21.5691 4.07811 22.1355 4.16874 22.43 4.57655C23.9933 6.86483 24.8316 9.53827 24.8316 12.3023C24.8316 15.0437 24.016 17.6945 22.498 19.9601C22.2941 20.2773 21.9995 20.4133 21.7277 20.4133Z" fill="#6982AB"/>
</svg>
