<svg width="10" height="12" viewBox="0 0 10 12" fill="none" xmlns="http://www.w3.org/2000/svg">
<path d="M9.17932 0.764771H2.12024C1.65219 0.764771 1.20332 0.950701 0.872358 1.28166C0.5414 1.61262 0.355469 2.0615 0.355469 2.52954V9.58863C0.355469 10.0567 0.5414 10.5055 0.872358 10.8365C1.20332 11.1675 1.65219 11.3534 2.12024 11.3534H9.17932C9.33534 11.3534 9.48497 11.2914 9.59528 11.1811C9.7056 11.0708 9.76758 10.9212 9.76758 10.7651V1.35303C9.76758 1.19701 9.7056 1.04739 9.59528 0.937067C9.48497 0.826747 9.33534 0.764771 9.17932 0.764771ZM2.12024 10.1769C1.96422 10.1769 1.8146 10.1149 1.70428 10.0046C1.59396 9.89427 1.53198 9.74464 1.53198 9.58863C1.53198 9.43261 1.59396 9.28299 1.70428 9.17267C1.8146 9.06235 1.96422 9.00037 2.12024 9.00037H8.59107V10.1769H2.12024Z" fill="#F1B51F"/>
</svg>
