<svg width="21" height="22" viewBox="0 0 21 22" fill="none" xmlns="http://www.w3.org/2000/svg">
<path d="M11.0948 0.900378C10.9417 0.733025 10.7255 0.637695 10.4987 0.637695C10.2719 0.637695 10.0556 0.733025 9.90261 0.900378L5.5949 5.61192C5.2939 5.94113 5.31677 6.45202 5.64599 6.75302C5.97522 7.05402 6.4861 7.03115 6.7871 6.70193L9.691 3.52579V15.4454C9.691 15.8914 10.0526 16.2531 10.4987 16.2531C10.9448 16.2531 11.3064 15.8914 11.3064 15.4454V3.52579L14.2103 6.70193C14.5113 7.03115 15.0222 7.05402 15.3514 6.75302C15.6806 6.45202 15.7035 5.94113 15.4025 5.61192L11.0948 0.900378Z" fill="#33363F"/>
<path d="M1.61539 14.3687C1.61539 13.9227 1.25378 13.561 0.807693 13.561C0.361621 13.561 5.64257e-07 13.9227 5.64257e-07 14.3687V14.4279C-2.09742e-05 15.9007 -4.25898e-05 17.0877 0.125484 18.0214C0.255813 18.9908 0.534617 19.8069 1.18284 20.4551C1.83106 21.1034 2.64723 21.3822 3.61658 21.5125C4.55024 21.638 5.73735 21.638 7.21014 21.638H13.7899C15.2627 21.638 16.4498 21.638 17.3835 21.5125C18.3528 21.3822 19.1689 21.1034 19.8172 20.4551C20.4654 19.8069 20.7442 18.9908 20.8745 18.0214C21 17.0877 21 15.9007 21 14.4279V14.3687C21 13.9227 20.6384 13.561 20.1923 13.561C19.7462 13.561 19.3846 13.9227 19.3846 14.3687C19.3846 15.9145 19.3829 16.9927 19.2736 17.8062C19.1673 18.5964 18.973 19.0148 18.6749 19.3129C18.3768 19.611 17.9584 19.8053 17.1682 19.9115C16.3547 20.0209 15.2766 20.0226 13.7308 20.0226H7.26923C5.72341 20.0226 4.64528 20.0209 3.83182 19.9115C3.04161 19.8053 2.62314 19.611 2.32509 19.3129C2.02704 19.0148 1.83271 18.5964 1.72647 17.8062C1.6171 16.9927 1.61539 15.9145 1.61539 14.3687Z" fill="#33363F"/>
</svg>
