<svg width="20" height="24" viewBox="0 0 20 24" fill="none" xmlns="http://www.w3.org/2000/svg">
<path d="M1 5.1377H19M14.5 5.1377L14.1956 4.19044C13.9005 3.27249 13.7529 2.81351 13.4793 2.47417C13.2376 2.17451 12.9274 1.94257 12.5768 1.79961C12.1798 1.6377 11.7134 1.6377 10.7803 1.6377H9.2197C8.28662 1.6377 7.8202 1.6377 7.4232 1.79961C7.07266 1.94257 6.76234 2.17451 6.5207 2.47417C6.24706 2.81351 6.09954 3.27249 5.80447 4.19044L5.5 5.1377M16.75 5.1377V17.0377C16.75 18.9979 16.75 19.9779 16.3821 20.7267C16.0586 21.3853 15.5423 21.9207 14.9072 22.2562C14.1852 22.6377 13.2402 22.6377 11.35 22.6377H8.65C6.75982 22.6377 5.81473 22.6377 5.09278 22.2562C4.45773 21.9207 3.94143 21.3853 3.61785 20.7267C3.25 19.9779 3.25 18.9979 3.25 17.0377V5.1377M12.25 9.80436V17.971M7.75 9.80436V17.971" stroke="#D22626" stroke-opacity="0.74" stroke-width="1.3" stroke-linecap="round" stroke-linejoin="round"/>
</svg>
