<svg width="25" height="25" viewBox="0 0 25 25" fill="none" xmlns="http://www.w3.org/2000/svg">
<path d="M12.75 1.40039C19.0184 1.40039 24.0996 6.48156 24.0996 12.75C24.0996 19.0184 19.0184 24.0996 12.75 24.0996C6.48156 24.0996 1.40039 19.0184 1.40039 12.75C1.40039 6.48157 6.48157 1.40039 12.75 1.40039Z" fill="#FCC63D" stroke="#21225F" stroke-width="1.2"/>
<path d="M18.7157 9.30416C19.0948 9.7097 19.0948 10.3672 18.7157 10.7727L15.5 14L12.2451 17.6958C11.8661 18.1014 11.2516 18.1014 10.8725 17.6958L8.28428 14.9266C7.90524 14.521 7.90524 13.8636 8.28428 13.4581C8.66331 13.0525 9.27786 13.0525 9.6569 13.4581L11.5588 15.4929L14.4509 12.3985L17.3432 9.30416C17.7222 8.89861 18.3367 8.89861 18.7157 9.30416Z" fill="#21225F"/>
</svg>
