<svg width="17" height="21" viewBox="0 0 17 21" fill="none" xmlns="http://www.w3.org/2000/svg">
<path d="M10.6234 2.425V9.55V3.375C10.6234 2.58799 11.2252 1.95 11.9676 1.95C12.7099 1.95 13.3117 2.58799 13.3117 3.375V9.55V6.225C13.3117 5.43799 13.9135 4.8 14.6559 4.8C15.3982 4.8 16 5.43799 16 6.225V14.3C16 17.448 13.5928 20 10.6234 20H9.61325C8.24724 20 6.9325 19.4488 5.93597 18.4583L1.49259 14.0421C0.850269 13.4037 0.833915 12.3284 1.45649 11.6683C2.06514 11.0231 3.05196 11.0231 3.66061 11.6683L5.24684 13.35V5.275C5.24684 4.48799 5.84864 3.85 6.59099 3.85C7.33331 3.85 7.93513 4.48799 7.93513 5.275V9.55V2.425C7.93513 1.63799 8.53694 1 9.27927 1C10.0216 1 10.6234 1.63799 10.6234 2.425Z" stroke="#6982AB" stroke-width="1.6" stroke-linecap="round" stroke-linejoin="round"/>
</svg>
