<svg width="417" height="85" viewBox="0 0 417 85" fill="none" xmlns="http://www.w3.org/2000/svg">
<g filter="url(#filter0_d_914_3047)">
<path d="M17 39C17 25.1929 28.1929 14 42 14H380L400 39.5L380 65H42C28.1929 65 17 53.8071 17 40V39Z" fill="white"/>
<path d="M380.59 13.5371L380.365 13.25H380H42C27.7787 13.25 16.25 24.7787 16.25 39V40C16.25 54.2213 27.7787 65.75 42 65.75H380H380.365L380.59 65.4629L400.59 39.9629L400.953 39.5L400.59 39.0371L380.59 13.5371Z" stroke="#E5E5E7" stroke-width="1.5"/>
</g>
<path d="M154.989 31.2279L154.989 31.2278C154.766 31.0091 154.466 30.8876 154.153 30.8903L154.153 30.8903C154.044 30.8912 153.9 30.9209 153.609 31.0316L153.609 31.0316C152.997 31.264 152.289 31.1985 151.739 30.7853C151.739 30.7853 151.739 30.7853 151.739 30.7853L152.07 30.3458L154.989 31.2279ZM154.989 31.2279C155.052 31.2889 155.12 31.3825 155.217 31.5726C155.316 31.767 155.426 32.0242 155.586 32.4012C155.746 32.7782 155.855 33.0356 155.927 33.2417M154.989 31.2279L155.927 33.2417M155.927 33.2417C155.997 33.4429 156.016 33.5572 156.017 33.644L155.927 33.2417ZM150.417 27.788L150.417 27.788L145.584 29.5494C146.028 29.3614 146.328 28.9495 146.404 28.4742L146.947 28.5616C146.947 28.5616 146.947 28.5616 146.947 28.5616C146.997 28.2545 147.043 28.1151 147.096 28.0212L146.623 27.7532L147.096 28.0212C147.25 27.7501 147.505 27.5508 147.806 27.4674L147.806 27.4674C147.891 27.4441 148.006 27.4316 148.22 27.4431C148.438 27.455 148.716 27.4888 149.123 27.5388C149.53 27.5888 149.808 27.6232 150.023 27.6645C150.232 27.7049 150.341 27.745 150.417 27.788ZM140.597 36.6323C140.673 36.5553 140.795 36.4722 141.077 36.34L145.291 42.0524C145.346 41.4006 145.087 40.7379 144.538 40.3246L144.538 40.3245C143.989 39.9114 143.28 39.8458 142.669 40.0783C142.377 40.189 142.233 40.2187 142.125 40.2196C141.812 40.2222 141.511 40.1007 141.288 39.882L141.288 39.882C141.226 39.821 141.157 39.7274 141.06 39.5374C140.961 39.3429 140.852 39.0856 140.691 38.7087C140.531 38.3318 140.422 38.0743 140.35 37.8682C140.28 37.6668 140.261 37.5526 140.26 37.4658C140.257 37.1544 140.378 36.8546 140.597 36.6324L140.597 36.6323ZM155.68 34.4776C155.604 34.5547 155.483 34.6377 155.2 34.7699L155.2 34.7699C154.608 35.0473 154.162 35.6019 154.079 36.2842C153.995 36.9665 154.293 37.6126 154.801 38.0251L154.801 38.0251C155.042 38.2214 155.14 38.3314 155.195 38.4246L155.68 34.4776ZM156.017 33.6442C156.02 33.9556 155.899 34.2554 155.68 34.4776L156.017 33.6442ZM145.86 43.3219C145.588 43.1682 145.388 42.9129 145.305 42.6127L155.321 39.3151C155.299 39.3992 155.252 39.5052 155.136 39.6836C155.017 39.8662 154.848 40.0896 154.602 40.4166L154.602 40.4166C154.355 40.7436 154.186 40.9666 154.043 41.1314C153.903 41.2924 153.814 41.3666 153.739 41.4108L153.739 41.4108C153.47 41.5691 153.148 41.6142 152.846 41.5359L152.846 41.5359C152.74 41.5087 152.608 41.4451 152.352 41.2672C151.815 40.8938 151.111 40.7858 150.478 41.054C149.845 41.3222 149.434 41.9026 149.33 42.5483C149.281 42.8554 149.234 42.9948 149.181 43.0887L149.181 43.0887C149.027 43.3598 148.772 43.5592 148.471 43.6425C148.387 43.6658 148.271 43.6783 148.058 43.6668C147.84 43.6549 147.561 43.6211 147.154 43.5711C146.747 43.5211 146.469 43.4867 146.255 43.4454C146.045 43.405 145.936 43.3649 145.86 43.3219ZM140.424 31.657L140.424 31.657L140.424 31.657ZM155.195 38.4248C155.354 38.6933 155.399 39.0135 155.321 39.3149L155.195 38.4248ZM147.756 38.6695C149.478 38.8809 151.046 37.6589 151.258 35.9379C151.469 34.2169 150.243 32.6518 148.521 32.4404C146.799 32.229 145.231 33.451 145.02 35.172C144.808 36.893 146.035 38.4581 147.756 38.6695Z" stroke="#21225F" stroke-width="1.1"/>
<path d="M136.215 50.0419L137.513 49.006L137.523 48.9987C137.793 48.7826 137.93 48.6736 138.082 48.596C138.219 48.5264 138.365 48.4756 138.515 48.4448C138.685 48.4101 138.861 48.4101 139.216 48.4101H146.612C147.564 48.4101 148.041 48.4101 148.405 48.225C148.726 48.0621 148.987 47.8019 149.15 47.4821C149.336 47.1189 149.336 46.6439 149.336 45.694V39.2302C149.336 38.2803 149.336 37.8046 149.15 37.4414C148.987 37.1216 148.725 36.8618 148.405 36.6989C148.04 36.5137 147.564 36.5137 146.61 36.5137H136.727C135.772 36.5137 135.295 36.5137 134.93 36.6989C134.61 36.8618 134.349 37.1216 134.186 37.4414C134 37.805 134 38.2812 134 39.233V48.9805C134 49.886 134 50.3387 134.186 50.5713C134.348 50.7735 134.593 50.8912 134.853 50.891C135.151 50.8906 135.506 50.6076 136.215 50.0419Z" fill="white" stroke="#21225F" stroke-width="1.1" stroke-linecap="round" stroke-linejoin="round"/>
<path d="M137.266 43.0632C137.266 42.8179 137.351 42.6099 137.522 42.4392C137.703 42.2686 137.911 42.1832 138.146 42.1832C138.391 42.1832 138.599 42.2686 138.77 42.4392C138.941 42.6099 139.026 42.8179 139.026 43.0632C139.026 43.2979 138.941 43.5059 138.77 43.6872C138.599 43.8579 138.391 43.9432 138.146 43.9432C137.911 43.9432 137.703 43.8579 137.522 43.6872C137.351 43.5059 137.266 43.2979 137.266 43.0632ZM140.943 43.0632C140.943 42.8179 141.028 42.6099 141.199 42.4392C141.38 42.2686 141.588 42.1832 141.823 42.1832C142.068 42.1832 142.276 42.2686 142.447 42.4392C142.618 42.6099 142.703 42.8179 142.703 43.0632C142.703 43.2979 142.618 43.5059 142.447 43.6872C142.276 43.8579 142.068 43.9432 141.823 43.9432C141.588 43.9432 141.38 43.8579 141.199 43.6872C141.028 43.5059 140.943 43.2979 140.943 43.0632ZM144.62 43.0632C144.62 42.8179 144.705 42.6099 144.876 42.4392C145.057 42.2686 145.265 42.1832 145.5 42.1832C145.745 42.1832 145.953 42.2686 146.124 42.4392C146.295 42.6099 146.38 42.8179 146.38 43.0632C146.38 43.2979 146.295 43.5059 146.124 43.6872C145.953 43.8579 145.745 43.9432 145.5 43.9432C145.265 43.9432 145.057 43.8579 144.876 43.6872C144.705 43.5059 144.62 43.2979 144.62 43.0632Z" fill="#21225F"/>
<path d="M169.131 39.4034C169.131 40.3754 169.347 41.2334 169.779 41.9774C170.223 42.7214 170.799 43.3034 171.507 43.7234C172.215 44.1434 172.983 44.3534 173.811 44.3534C174.411 44.3534 174.957 44.2754 175.449 44.1194C175.953 43.9634 176.409 43.7474 176.817 43.4714C177.225 43.1834 177.573 42.8534 177.861 42.4814V44.4974C177.333 44.9654 176.757 45.3134 176.133 45.5414C175.509 45.7694 174.735 45.8834 173.811 45.8834C172.935 45.8834 172.113 45.7274 171.345 45.4154C170.589 45.0914 169.923 44.6414 169.347 44.0654C168.771 43.4774 168.321 42.7874 167.997 41.9954C167.673 41.2034 167.511 40.3394 167.511 39.4034C167.511 38.4674 167.673 37.6034 167.997 36.8114C168.321 36.0194 168.771 35.3354 169.347 34.7594C169.923 34.1714 170.589 33.7214 171.345 33.4094C172.113 33.0854 172.935 32.9234 173.811 32.9234C174.735 32.9234 175.509 33.0374 176.133 33.2654C176.757 33.4934 177.333 33.8414 177.861 34.3094V36.3254C177.573 35.9534 177.225 35.6294 176.817 35.3534C176.409 35.0654 175.953 34.8434 175.449 34.6874C174.957 34.5314 174.411 34.4534 173.811 34.4534C172.983 34.4534 172.215 34.6634 171.507 35.0834C170.799 35.5034 170.223 36.0854 169.779 36.8294C169.347 37.5614 169.131 38.4194 169.131 39.4034ZM179.743 41.5634C179.743 40.7234 179.929 39.9794 180.301 39.3314C180.685 38.6834 181.201 38.1734 181.849 37.8014C182.497 37.4294 183.223 37.2434 184.027 37.2434C184.843 37.2434 185.569 37.4294 186.205 37.8014C186.853 38.1734 187.363 38.6834 187.735 39.3314C188.119 39.9794 188.311 40.7234 188.311 41.5634C188.311 42.3914 188.119 43.1354 187.735 43.7954C187.363 44.4434 186.853 44.9534 186.205 45.3254C185.569 45.6974 184.843 45.8834 184.027 45.8834C183.223 45.8834 182.497 45.6974 181.849 45.3254C181.201 44.9534 180.685 44.4434 180.301 43.7954C179.929 43.1354 179.743 42.3914 179.743 41.5634ZM181.201 41.5634C181.201 42.1394 181.321 42.6494 181.561 43.0934C181.813 43.5374 182.149 43.8914 182.569 44.1554C183.001 44.4074 183.487 44.5334 184.027 44.5334C184.567 44.5334 185.047 44.4074 185.467 44.1554C185.899 43.8914 186.235 43.5374 186.475 43.0934C186.727 42.6494 186.853 42.1394 186.853 41.5634C186.853 40.9874 186.727 40.4774 186.475 40.0334C186.235 39.5774 185.899 39.2234 185.467 38.9714C185.047 38.7194 184.567 38.5934 184.027 38.5934C183.487 38.5934 183.001 38.7194 182.569 38.9714C182.149 39.2234 181.813 39.5774 181.561 40.0334C181.321 40.4774 181.201 40.9874 181.201 41.5634ZM195.599 40.6634C195.599 39.9794 195.449 39.4634 195.149 39.1154C194.849 38.7674 194.411 38.5934 193.835 38.5934C193.415 38.5934 193.043 38.6834 192.719 38.8634C192.407 39.0314 192.161 39.2714 191.981 39.5834C191.813 39.8954 191.729 40.2554 191.729 40.6634V45.7034H190.289V37.4234H191.729V38.7194C192.005 38.2154 192.347 37.8434 192.755 37.6034C193.175 37.3634 193.655 37.2434 194.195 37.2434C195.071 37.2434 195.761 37.5374 196.265 38.1254C196.781 38.7014 197.039 39.4874 197.039 40.4834V45.7034H195.599V40.6634ZM199.116 37.4234H203.256V38.7734H199.116V37.4234ZM203.112 33.3914C202.992 33.1874 202.848 33.0614 202.68 33.0134C202.524 32.9534 202.374 32.9234 202.23 32.9234C202.05 32.9234 201.894 32.9774 201.762 33.0854C201.642 33.1814 201.546 33.3494 201.474 33.5894C201.402 33.8294 201.366 34.1474 201.366 34.5434V45.7034H199.926V34.3634C199.926 33.7034 200.022 33.1634 200.214 32.7434C200.406 32.3234 200.676 32.0114 201.024 31.8074C201.384 31.5914 201.816 31.4834 202.32 31.4834C202.584 31.4834 202.818 31.5194 203.022 31.5914C203.226 31.6634 203.4 31.7534 203.544 31.8614C203.7 31.9694 203.82 32.0834 203.904 32.2034L203.112 33.3914ZM204.897 34.0034C204.897 33.7274 204.993 33.4934 205.185 33.3014C205.389 33.1094 205.623 33.0134 205.887 33.0134C206.163 33.0134 206.397 33.1094 206.589 33.3014C206.781 33.4934 206.877 33.7274 206.877 34.0034C206.877 34.2674 206.781 34.5014 206.589 34.7054C206.397 34.8974 206.163 34.9934 205.887 34.9934C205.623 34.9934 205.389 34.8974 205.185 34.7054C204.993 34.5014 204.897 34.2674 204.897 34.0034ZM205.167 37.4234H206.607V45.7034H205.167V37.4234ZM209.015 46.2434H210.473C210.473 46.6394 210.581 47.0054 210.797 47.3414C211.013 47.6894 211.319 47.9654 211.715 48.1694C212.111 48.3854 212.579 48.4934 213.119 48.4934C213.539 48.4934 213.953 48.3914 214.361 48.1874C214.769 47.9834 215.105 47.6594 215.369 47.2154C215.645 46.7834 215.783 46.2194 215.783 45.5234V37.4234H217.223V45.5234C217.223 46.4714 217.025 47.2634 216.629 47.8994C216.233 48.5474 215.723 49.0334 215.099 49.3574C214.475 49.6814 213.815 49.8434 213.119 49.8434C212.315 49.8434 211.601 49.6934 210.977 49.3934C210.365 49.0934 209.885 48.6674 209.537 48.1154C209.189 47.5754 209.015 46.9514 209.015 46.2434ZM208.853 41.5634C208.853 40.6634 209.039 39.8954 209.411 39.2594C209.783 38.6114 210.281 38.1134 210.905 37.7654C211.529 37.4174 212.213 37.2434 212.957 37.2434C213.653 37.2434 214.259 37.4174 214.775 37.7654C215.291 38.1134 215.693 38.6114 215.981 39.2594C216.281 39.8954 216.431 40.6634 216.431 41.5634C216.431 42.4514 216.281 43.2194 215.981 43.8674C215.693 44.5154 215.291 45.0134 214.775 45.3614C214.259 45.7094 213.653 45.8834 212.957 45.8834C212.213 45.8834 211.529 45.7094 210.905 45.3614C210.281 45.0134 209.783 44.5154 209.411 43.8674C209.039 43.2194 208.853 42.4514 208.853 41.5634ZM210.311 41.5634C210.311 42.1994 210.437 42.7394 210.689 43.1834C210.953 43.6274 211.301 43.9634 211.733 44.1914C212.165 44.4194 212.633 44.5334 213.137 44.5334C213.557 44.5334 213.971 44.4194 214.379 44.1914C214.787 43.9634 215.123 43.6274 215.387 43.1834C215.651 42.7394 215.783 42.1994 215.783 41.5634C215.783 41.0834 215.705 40.6634 215.549 40.3034C215.393 39.9314 215.183 39.6194 214.919 39.3674C214.667 39.1154 214.385 38.9234 214.073 38.7914C213.761 38.6594 213.449 38.5934 213.137 38.5934C212.633 38.5934 212.165 38.7074 211.733 38.9354C211.301 39.1634 210.953 39.4994 210.689 39.9434C210.437 40.3874 210.311 40.9274 210.311 41.5634ZM221.278 42.4634C221.278 43.1234 221.428 43.6334 221.728 43.9934C222.028 44.3534 222.466 44.5334 223.042 44.5334C223.462 44.5334 223.828 44.4494 224.14 44.2814C224.464 44.1014 224.71 43.8554 224.878 43.5434C225.058 43.2314 225.148 42.8714 225.148 42.4634V37.4234H226.588V45.7034H225.148V44.4074C224.872 44.8994 224.53 45.2714 224.122 45.5234C223.714 45.7634 223.234 45.8834 222.682 45.8834C221.818 45.8834 221.128 45.5894 220.612 45.0014C220.096 44.4134 219.838 43.6274 219.838 42.6434V37.4234H221.278V42.4634ZM230.735 37.4234V45.7034H229.295V37.4234H230.735ZM233.237 39.0074C233.045 38.8634 232.871 38.7614 232.715 38.7014C232.559 38.6294 232.361 38.5934 232.121 38.5934C231.761 38.5934 231.479 38.6834 231.275 38.8634C231.071 39.0434 230.927 39.2894 230.843 39.6014C230.771 39.9134 230.735 40.2674 230.735 40.6634H230.087C230.087 40.0034 230.201 39.4214 230.429 38.9174C230.669 38.4014 230.975 37.9934 231.347 37.6934C231.719 37.3934 232.097 37.2434 232.481 37.2434C232.781 37.2434 233.057 37.2854 233.309 37.3694C233.573 37.4414 233.813 37.5914 234.029 37.8194L233.237 39.0074ZM236.113 43.1474C236.113 43.4594 236.185 43.7294 236.329 43.9574C236.485 44.1854 236.695 44.3594 236.959 44.4794C237.235 44.5874 237.547 44.6414 237.895 44.6414C238.339 44.6414 238.735 44.5514 239.083 44.3714C239.443 44.1914 239.725 43.9394 239.929 43.6154C240.145 43.2794 240.253 42.8954 240.253 42.4634L240.541 43.5434C240.541 44.0714 240.379 44.5094 240.055 44.8574C239.743 45.2054 239.353 45.4634 238.885 45.6314C238.429 45.7994 237.973 45.8834 237.517 45.8834C237.013 45.8834 236.539 45.7814 236.095 45.5774C235.663 45.3614 235.315 45.0554 235.051 44.6594C234.787 44.2634 234.655 43.7834 234.655 43.2194C234.655 42.4154 234.937 41.7734 235.501 41.2934C236.077 40.8014 236.875 40.5554 237.895 40.5554C238.495 40.5554 238.993 40.6274 239.389 40.7714C239.797 40.9034 240.121 41.0594 240.361 41.2394C240.601 41.4074 240.763 41.5454 240.847 41.6534V42.4994C240.427 42.2114 239.995 42.0074 239.551 41.8874C239.107 41.7554 238.633 41.6894 238.129 41.6894C237.661 41.6894 237.277 41.7494 236.977 41.8694C236.689 41.9894 236.473 42.1574 236.329 42.3734C236.185 42.5894 236.113 42.8474 236.113 43.1474ZM235.897 39.3314L235.195 38.2694C235.507 38.0414 235.933 37.8134 236.473 37.5854C237.025 37.3574 237.685 37.2434 238.453 37.2434C239.101 37.2434 239.665 37.3454 240.145 37.5494C240.637 37.7414 241.015 38.0234 241.279 38.3954C241.555 38.7674 241.693 39.2234 241.693 39.7634V45.7034H240.253V39.9614C240.253 39.6734 240.205 39.4394 240.109 39.2594C240.013 39.0674 239.875 38.9174 239.695 38.8094C239.527 38.7014 239.329 38.6234 239.101 38.5754C238.873 38.5274 238.633 38.5034 238.381 38.5034C237.973 38.5034 237.601 38.5514 237.265 38.6474C236.941 38.7434 236.665 38.8574 236.437 38.9894C236.209 39.1214 236.029 39.2354 235.897 39.3314ZM248.181 38.7734H243.591V37.4234H250.791L245.661 44.3534H250.431V45.7034H243.051L248.181 38.7734ZM252.411 34.0034C252.411 33.7274 252.507 33.4934 252.699 33.3014C252.903 33.1094 253.137 33.0134 253.401 33.0134C253.677 33.0134 253.911 33.1094 254.103 33.3014C254.295 33.4934 254.391 33.7274 254.391 34.0034C254.391 34.2674 254.295 34.5014 254.103 34.7054C253.911 34.8974 253.677 34.9934 253.401 34.9934C253.137 34.9934 252.903 34.8974 252.699 34.7054C252.507 34.5014 252.411 34.2674 252.411 34.0034ZM252.681 37.4234H254.121V45.7034H252.681V37.4234ZM256.366 41.5634C256.366 40.7234 256.552 39.9794 256.924 39.3314C257.308 38.6834 257.824 38.1734 258.472 37.8014C259.12 37.4294 259.846 37.2434 260.65 37.2434C261.466 37.2434 262.192 37.4294 262.828 37.8014C263.476 38.1734 263.986 38.6834 264.358 39.3314C264.742 39.9794 264.934 40.7234 264.934 41.5634C264.934 42.3914 264.742 43.1354 264.358 43.7954C263.986 44.4434 263.476 44.9534 262.828 45.3254C262.192 45.6974 261.466 45.8834 260.65 45.8834C259.846 45.8834 259.12 45.6974 258.472 45.3254C257.824 44.9534 257.308 44.4434 256.924 43.7954C256.552 43.1354 256.366 42.3914 256.366 41.5634ZM257.824 41.5634C257.824 42.1394 257.944 42.6494 258.184 43.0934C258.436 43.5374 258.772 43.8914 259.192 44.1554C259.624 44.4074 260.11 44.5334 260.65 44.5334C261.19 44.5334 261.67 44.4074 262.09 44.1554C262.522 43.8914 262.858 43.5374 263.098 43.0934C263.35 42.6494 263.476 42.1394 263.476 41.5634C263.476 40.9874 263.35 40.4774 263.098 40.0334C262.858 39.5774 262.522 39.2234 262.09 38.9714C261.67 38.7194 261.19 38.5934 260.65 38.5934C260.11 38.5934 259.624 38.7194 259.192 38.9714C258.772 39.2234 258.436 39.5774 258.184 40.0334C257.944 40.4774 257.824 40.9874 257.824 41.5634ZM272.223 40.6634C272.223 39.9794 272.073 39.4634 271.773 39.1154C271.473 38.7674 271.035 38.5934 270.459 38.5934C270.039 38.5934 269.667 38.6834 269.343 38.8634C269.031 39.0314 268.785 39.2714 268.605 39.5834C268.437 39.8954 268.353 40.2554 268.353 40.6634V45.7034H266.913V37.4234H268.353V38.7194C268.629 38.2154 268.971 37.8434 269.379 37.6034C269.799 37.3634 270.279 37.2434 270.819 37.2434C271.695 37.2434 272.385 37.5374 272.889 38.1254C273.405 38.7014 273.663 39.4874 273.663 40.4834V45.7034H272.223V40.6634ZM279.574 45.8834C278.806 45.8834 278.122 45.7034 277.522 45.3434C276.934 44.9714 276.472 44.4614 276.136 43.8134C275.812 43.1654 275.65 42.4154 275.65 41.5634C275.65 40.6994 275.818 39.9434 276.154 39.2954C276.502 38.6474 276.982 38.1434 277.594 37.7834C278.218 37.4234 278.938 37.2434 279.754 37.2434C280.57 37.2434 281.266 37.4174 281.842 37.7654C282.43 38.1014 282.88 38.5874 283.192 39.2234C283.504 39.8594 283.66 40.6154 283.66 41.4914C283.66 41.5754 283.654 41.6654 283.642 41.7614C283.642 41.8454 283.642 41.8994 283.642 41.9234H276.568V40.6994H282.508L281.932 41.5274C281.968 41.4674 282.004 41.3774 282.04 41.2574C282.076 41.1254 282.094 41.0174 282.094 40.9334C282.094 40.4414 281.992 40.0154 281.788 39.6554C281.596 39.2954 281.326 39.0134 280.978 38.8094C280.63 38.6054 280.222 38.5034 279.754 38.5034C279.202 38.5034 278.728 38.6234 278.332 38.8634C277.948 39.0914 277.648 39.4274 277.432 39.8714C277.228 40.3034 277.12 40.8374 277.108 41.4734C277.108 42.1214 277.21 42.6734 277.414 43.1294C277.618 43.5854 277.918 43.9334 278.314 44.1734C278.71 44.4134 279.19 44.5334 279.754 44.5334C280.318 44.5334 280.816 44.4134 281.248 44.1734C281.68 43.9214 282.046 43.5434 282.346 43.0394L283.516 43.7774C283.084 44.4734 282.538 45.0014 281.878 45.3614C281.23 45.7094 280.462 45.8834 279.574 45.8834Z" fill="#1D2125"/>
<defs>
<filter id="filter0_d_914_3047" x="0.5" y="0.5" width="416.406" height="84" filterUnits="userSpaceOnUse" color-interpolation-filters="sRGB">
<feFlood flood-opacity="0" result="BackgroundImageFix"/>
<feColorMatrix in="SourceAlpha" type="matrix" values="0 0 0 0 0 0 0 0 0 0 0 0 0 0 0 0 0 0 127 0" result="hardAlpha"/>
<feOffset dy="3"/>
<feGaussianBlur stdDeviation="7.5"/>
<feComposite in2="hardAlpha" operator="out"/>
<feColorMatrix type="matrix" values="0 0 0 0 0 0 0 0 0 0 0 0 0 0 0 0 0 0 0.04 0"/>
<feBlend mode="normal" in2="BackgroundImageFix" result="effect1_dropShadow_914_3047"/>
<feBlend mode="normal" in="SourceGraphic" in2="effect1_dropShadow_914_3047" result="shape"/>
</filter>
</defs>
</svg>
