<svg width="17" height="16" viewBox="0 0 17 16" fill="none" xmlns="http://www.w3.org/2000/svg">
<path d="M3.21483 14.5282L4.51323 13.4923L4.52278 13.485C4.79346 13.269 4.93005 13.16 5.08245 13.0824C5.21918 13.0127 5.36497 12.962 5.51536 12.9311C5.68488 12.8964 5.86146 12.8964 6.21592 12.8964H13.612C14.5645 12.8964 15.0413 12.8964 15.4054 12.7114C15.726 12.5485 15.9869 12.2882 16.1502 11.9684C16.3358 11.6053 16.3358 11.1302 16.3358 10.1803V3.71656C16.3358 2.76661 16.3358 2.29093 16.1502 1.92775C15.9869 1.60797 15.7255 1.34817 15.4049 1.18524C15.0404 1 14.5639 1 13.6096 1H3.72653C2.77221 1 2.2947 1 1.9302 1.18524C1.60957 1.34817 1.34908 1.60797 1.18572 1.92775C1 2.29129 1 2.76755 1 3.71936V13.4668C1 14.3724 1 14.825 1.18613 15.0576C1.34799 15.2598 1.59336 15.3775 1.85282 15.3773C2.15116 15.3769 2.50584 15.094 3.21483 14.5282Z" fill="#FCC63D" stroke="#21225F" stroke-width="0.8" stroke-linecap="round" stroke-linejoin="round"/>
<path d="M3.61375 7.04631C3.61375 6.80098 3.69908 6.59298 3.86975 6.42231C4.05108 6.25165 4.25908 6.16631 4.49375 6.16631C4.73908 6.16631 4.94708 6.25165 5.11775 6.42231C5.28842 6.59298 5.37375 6.80098 5.37375 7.04631C5.37375 7.28098 5.28842 7.48898 5.11775 7.67031C4.94708 7.84098 4.73908 7.92631 4.49375 7.92631C4.25908 7.92631 4.05108 7.84098 3.86975 7.67031C3.69908 7.48898 3.61375 7.28098 3.61375 7.04631ZM7.77063 7.04631C7.77063 6.80098 7.85596 6.59298 8.02663 6.42231C8.20796 6.25165 8.41596 6.16631 8.65063 6.16631C8.89596 6.16631 9.10396 6.25165 9.27463 6.42231C9.44529 6.59298 9.53063 6.80098 9.53063 7.04631C9.53063 7.28098 9.44529 7.48898 9.27463 7.67031C9.10396 7.84098 8.89596 7.92631 8.65063 7.92631C8.41596 7.92631 8.20796 7.84098 8.02663 7.67031C7.85596 7.48898 7.77063 7.28098 7.77063 7.04631ZM11.9275 7.04631C11.9275 6.80098 12.0128 6.59298 12.1835 6.42231C12.3648 6.25165 12.5728 6.16631 12.8075 6.16631C13.0528 6.16631 13.2608 6.25165 13.4315 6.42231C13.6022 6.59298 13.6875 6.80098 13.6875 7.04631C13.6875 7.28098 13.6022 7.48898 13.4315 7.67031C13.2608 7.84098 13.0528 7.92631 12.8075 7.92631C12.5728 7.92631 12.3648 7.84098 12.1835 7.67031C12.0128 7.48898 11.9275 7.28098 11.9275 7.04631Z" fill="#21225F"/>
</svg>
