<svg width="62" height="62" viewBox="0 0 62 62" fill="none" xmlns="http://www.w3.org/2000/svg">
<path d="M16.5164 13.225L9.27474 11.25L2.69141 22.4417L7.95807 27.05V34.2917L2.69141 40.875L9.27474 51.4083L16.5164 49.4333L23.0997 53.3833L25.0747 60.625L37.5831 61.2833L39.5581 53.3833L45.4831 49.4333L53.3831 51.4083L59.3081 39.5583L54.0414 34.2917V27.05L59.3081 22.4417L53.3831 11.25L45.4831 13.225L39.5581 8.61667L37.5831 1.375H25.7331L23.0997 8.61667L16.5164 13.225Z" fill="#FCC63D" stroke="#21225F"/>
<path d="M37.5849 60.625H24.4183L22.6046 52.4617C20.4461 51.6177 18.4274 50.4524 16.617 49.0054L8.63802 51.517L2.05469 40.1146L8.21669 34.4595C7.87184 32.1683 7.87184 29.8383 8.21669 27.547L2.05469 21.8887L8.63802 10.4863L16.617 12.9979C18.4283 11.5494 20.448 10.3831 22.6079 9.53833L24.4183 1.375H37.5849L39.3986 9.53833C41.5571 10.3824 43.5757 11.5476 45.3862 12.9946L53.3652 10.483L59.9485 21.8854L53.7865 27.5405C54.1316 29.8317 54.1316 32.1617 53.7865 34.453L59.9485 40.108L53.3652 51.5104L45.3862 48.9988C43.5762 50.4482 41.5576 51.6157 39.3986 52.4617L37.5849 60.625Z" stroke="#21225F" stroke-width="2.3" stroke-linecap="round" stroke-linejoin="round"/>
<path d="M31 40.875C36.4538 40.875 40.875 36.4538 40.875 31C40.875 25.5462 36.4538 21.125 31 21.125C25.5462 21.125 21.125 25.5462 21.125 31C21.125 36.4538 25.5462 40.875 31 40.875Z" fill="white" stroke="#21225F" stroke-width="2.3"/>
</svg>
