<svg width="9" height="17" viewBox="0 0 9 17" fill="none" xmlns="http://www.w3.org/2000/svg">
<path d="M4.15116 2.37209C3.16864 2.37209 2.37209 3.16861 2.37209 4.15116C2.37209 4.80619 1.84106 5.33721 1.18605 5.33721C0.531017 5.33721 0 4.80619 0 4.15116C0 1.85854 1.85861 0 4.15116 0C6.44371 0 8.30233 1.85854 8.30233 4.15116C8.30233 5.27528 7.854 6.29712 7.12893 7.04354C6.98297 7.19361 6.8438 7.33277 6.71097 7.46545C6.3697 7.8064 6.07066 8.10513 5.80831 8.44228C5.46198 8.88728 5.33721 9.21448 5.33721 9.48837V10.6744C5.33721 11.3294 4.80618 11.8605 4.15116 11.8605C3.49615 11.8605 2.96512 11.3294 2.96512 10.6744V9.48837C2.96512 8.45224 3.44744 7.61347 3.93641 6.98534C4.29807 6.52057 4.75273 6.06671 5.12182 5.6985C5.23315 5.5874 5.33658 5.48411 5.42735 5.39061C5.73983 5.06905 5.93023 4.63355 5.93023 4.15116C5.93023 3.16861 5.13368 2.37209 4.15116 2.37209Z" fill="#4F5255"/>
<path d="M4.15122 17.0002C5.02462 17.0002 5.73261 16.2922 5.73261 15.4188C5.73261 14.5454 5.02462 13.8374 4.15122 13.8374C3.27781 13.8374 2.56982 14.5454 2.56982 15.4188C2.56982 16.2922 3.27781 17.0002 4.15122 17.0002Z" fill="#4F5255"/>
</svg>
