<svg width="19" height="19" viewBox="0 0 19 19" fill="none" xmlns="http://www.w3.org/2000/svg">
<g opacity="0.82">
<path d="M9.5004 2.37528L10.0779 1.83382L9.5004 1.21777L8.92288 1.83382L9.5004 2.37528ZM8.70874 7.12528C8.70874 7.5625 9.06317 7.91694 9.5004 7.91694C9.93764 7.91694 10.2921 7.5625 10.2921 7.12528H8.70874ZM12.4529 4.36716L10.0779 1.83382L8.92288 2.91673L11.2979 5.45006L12.4529 4.36716ZM8.92288 1.83382L6.54785 4.36716L7.70296 5.45006L10.0779 2.91673L8.92288 1.83382ZM8.70874 2.37528V7.12528H10.2921V2.37528H8.70874Z" fill="#33363F"/>
<path d="M16.6247 9.5004L17.1661 10.0779L17.7822 9.5004L17.1661 8.92288L16.6247 9.5004ZM11.8747 8.70874C11.4374 8.70874 11.083 9.06317 11.083 9.5004C11.083 9.93764 11.4374 10.2921 11.8747 10.2921V8.70874ZM14.6328 12.4529L17.1661 10.0779L16.0833 8.92288L13.5499 11.2979L14.6328 12.4529ZM17.1661 8.92288L14.6328 6.54785L13.5499 7.70296L16.0833 10.0779L17.1661 8.92288ZM16.6247 8.70874H11.8747V10.2921H16.6247V8.70874Z" fill="#33363F"/>
<path d="M9.5004 16.6247L10.0779 17.1661L9.5004 17.7822L8.92288 17.1661L9.5004 16.6247ZM8.70874 11.8747C8.70874 11.4374 9.06317 11.083 9.5004 11.083C9.93764 11.083 10.2921 11.4374 10.2921 11.8747H8.70874ZM12.4529 14.6328L10.0779 17.1661L8.92288 16.0833L11.2979 13.5499L12.4529 14.6328ZM8.92288 17.1661L6.54785 14.6328L7.70296 13.5499L10.0779 16.0833L8.92288 17.1661ZM8.70874 16.6247V11.8747H10.2921V16.6247H8.70874Z" fill="#33363F"/>
<path d="M2.37528 9.5004L1.83382 10.0779L1.21777 9.5004L1.83382 8.92288L2.37528 9.5004ZM7.12528 8.70874C7.5625 8.70874 7.91694 9.06317 7.91694 9.5004C7.91694 9.93764 7.5625 10.2921 7.12528 10.2921V8.70874ZM4.36716 12.4529L1.83382 10.0779L2.91673 8.92288L5.45006 11.2979L4.36716 12.4529ZM1.83382 8.92288L4.36716 6.54785L5.45006 7.70296L2.91673 10.0779L1.83382 8.92288ZM2.37528 8.70874H7.12528V10.2921H2.37528V8.70874Z" fill="#33363F"/>
</g>
</svg>
