<svg width="13" height="13" viewBox="0 0 13 13" fill="none" xmlns="http://www.w3.org/2000/svg">
<path opacity="0.62" d="M12.5841 0.423065C13.1388 0.987165 13.1388 1.90173 12.5841 2.46583L8.61721 6.50002L12.5841 10.5342C13.1388 11.0983 13.1388 12.0129 12.5841 12.577C12.0294 13.141 11.1301 13.141 10.5753 12.577L6.60853 8.54276L2.64159 12.577C2.08679 13.141 1.18756 13.141 0.632765 12.577C0.0781408 12.0129 0.0781408 11.0983 0.632765 10.5342L4.5997 6.50002L0.632765 2.46583C0.0781408 1.90173 0.0781408 0.987165 0.632765 0.423065C1.18756 -0.141022 2.08679 -0.141022 2.64159 0.423065L6.60853 4.45728L10.5753 0.423065C11.1301 -0.141022 12.0294 -0.141022 12.5841 0.423065Z" fill="#495057"/>
</svg>
