<svg width="24" height="31" viewBox="0 0 24 31" fill="none" xmlns="http://www.w3.org/2000/svg">
<path d="M22.9296 10.6667V24.8444C22.9296 26.649 22.9296 27.5514 22.5843 28.2407C22.2806 28.8469 21.7958 29.3399 21.1996 29.6488C20.5219 30 19.6345 30 17.86 30H5.81963C4.04509 30 3.15782 30 2.48004 29.6488C1.88384 29.3399 1.39912 28.8469 1.09535 28.2407C0.75 27.5514 0.75 26.649 0.75 24.8444V6.15556C0.75 4.35093 0.75 3.44863 1.09535 2.75937C1.39912 2.15306 1.88384 1.66012 2.48004 1.35121C3.15782 1 4.0451 1 5.81963 1H13.4241M22.9296 10.6667L13.4241 1M22.9296 10.6667H15.0083C14.1334 10.6667 13.4241 9.94534 13.4241 9.05556V1" stroke="#495057" stroke-linecap="round" stroke-linejoin="round"/>
<path d="M4.16522 17.7H5.22722V24H4.16522V17.7ZM4.79522 18.636V17.7H6.06422C6.52022 17.7 6.91622 17.781 7.25222 17.943C7.59422 18.099 7.85822 18.324 8.04422 18.618C8.23022 18.906 8.32322 19.251 8.32322 19.653C8.32322 20.055 8.23022 20.403 8.04422 20.697C7.85822 20.991 7.59422 21.219 7.25222 21.381C6.91622 21.537 6.52022 21.615 6.06422 21.615H4.79522V20.679H6.06422C6.43022 20.679 6.72422 20.592 6.94622 20.418C7.16822 20.244 7.27922 19.989 7.27922 19.653C7.27922 19.317 7.16822 19.065 6.94622 18.897C6.72422 18.723 6.43022 18.636 6.06422 18.636H4.79522ZM9.36834 17.7H10.4483V24H9.36834V17.7ZM11.4023 24H10.0253V23.001H11.3753C11.6873 23.001 11.9753 22.956 12.2393 22.866C12.5033 22.776 12.7313 22.641 12.9233 22.461C13.1213 22.281 13.2743 22.056 13.3823 21.786C13.4963 21.516 13.5533 21.204 13.5533 20.85C13.5533 20.496 13.4963 20.184 13.3823 19.914C13.2743 19.644 13.1213 19.419 12.9233 19.239C12.7313 19.059 12.5033 18.924 12.2393 18.834C11.9753 18.744 11.6873 18.699 11.3753 18.699H10.0253V17.7H11.4023C12.0443 17.7 12.6083 17.832 13.0943 18.096C13.5803 18.354 13.9583 18.72 14.2283 19.194C14.5043 19.662 14.6423 20.214 14.6423 20.85C14.6423 21.486 14.5043 22.041 14.2283 22.515C13.9583 22.983 13.5803 23.349 13.0943 23.613C12.6083 23.871 12.0443 24 11.4023 24ZM16.3359 18.654V17.7H19.1529V18.654H16.3359ZM16.3359 21.156V20.229H19.0629V21.156H16.3359ZM15.6789 17.7H16.7229V24H15.6789V17.7Z" fill="#495057"/>
</svg>
