<svg width="14" height="21" viewBox="0 0 14 21" fill="none" xmlns="http://www.w3.org/2000/svg">
<path d="M4.43333 8.16667C3.87333 8.16667 3.5 7.79333 3.5 7.23333C3.5 5.18 5.18 3.5 7.23333 3.5C7.79333 3.5 8.16667 3.87333 8.16667 4.43333C8.16667 4.99333 7.79333 5.36667 7.23333 5.36667C6.20667 5.36667 5.36667 6.20667 5.36667 7.23333C5.36667 7.79333 4.99333 8.16667 4.43333 8.16667Z" fill="#6982AB"/>
<path d="M7 21.0001C5.075 21.0001 3.5 19.5001 3.5 17.6667V16.0001C3.5 15.5001 3.85 15.1667 4.375 15.1667H9.625C10.15 15.1667 10.5 15.5001 10.5 16.0001V17.6667C10.5 19.5001 8.925 21.0001 7 21.0001ZM5.25 16.8334V17.6667C5.25 18.5834 6.0375 19.3334 7 19.3334C7.9625 19.3334 8.75 18.5834 8.75 17.6667V16.8334H5.25Z" fill="#6982AB"/>
<path d="M9.62728 16.3333H4.38002C3.85529 16.3333 3.50548 15.9895 3.50548 15.4737V15.0439C3.50548 13.8404 2.98075 12.6368 2.01875 11.6912C0.619483 10.3158 -0.0801514 8.51053 0.00730293 6.6193C0.182212 3.00877 3.24311 0.0859649 6.9162 0H7.00365C10.8516 0 14 3.09474 14 6.87719C14 8.68246 13.3004 10.4877 11.9011 11.7772C10.9391 12.6368 10.5018 13.8404 10.5018 15.0439V15.4737C10.5018 15.9895 10.152 16.3333 9.62728 16.3333ZM5.25456 14.614H8.75274C8.84019 13.0667 9.53983 11.6912 10.6767 10.4877C11.7262 9.54211 12.2509 8.25263 12.2509 6.87719C12.2509 4.04035 9.88964 1.7193 7.00365 1.7193H6.9162C4.20511 1.80526 1.84384 3.95439 1.75639 6.70526C1.66894 8.0807 2.28112 9.45614 3.24311 10.4877C4.46747 11.6912 5.16711 13.1526 5.25456 14.614Z" fill="#6982AB"/>
</svg>
