<svg width="20" height="18" viewBox="0 0 20 18" fill="none" xmlns="http://www.w3.org/2000/svg">
<path d="M10 7.4V17M10 7.4C10 5.15979 10 4.03969 9.564 3.18404C9.1805 2.43139 8.5686 1.81947 7.81596 1.43597C6.96031 1 5.84021 1 3.6 1H2.6C2.03995 1 1.75992 1 1.54601 1.10899C1.35785 1.20487 1.20487 1.35785 1.10899 1.54601C1 1.75992 1 2.03995 1 2.6V13.4C1 13.9601 1 14.2401 1.10899 14.454C1.20487 14.6422 1.35785 14.7951 1.54601 14.891C1.75992 15 2.03995 15 2.6 15H5.54668C6.08687 15 6.35696 15 6.61814 15.0466C6.84995 15.0879 7.0761 15.1563 7.29191 15.2506C7.53504 15.3567 7.75977 15.5065 8.2092 15.8062L10 17M10 7.4C10 5.15979 10 4.03969 10.436 3.18404C10.8195 2.43139 11.4314 1.81947 12.184 1.43597C13.0397 1 14.1598 1 16.4 1H17.4C17.9601 1 18.2401 1 18.454 1.10899C18.6422 1.20487 18.7951 1.35785 18.891 1.54601C19 1.75992 19 2.03995 19 2.6V13.4C19 13.9601 19 14.2401 18.891 14.454C18.7951 14.6422 18.6422 14.7951 18.454 14.891C18.2401 15 17.9601 15 17.4 15H14.4533C13.9131 15 13.643 15 13.3819 15.0466C13.15 15.0879 12.9239 15.1563 12.7081 15.2506C12.465 15.3567 12.2402 15.5065 11.7908 15.8062L10 17" stroke="#6982AB" stroke-width="2" stroke-linecap="round" stroke-linejoin="round"/>
</svg>
