<svg width="1135" height="85" viewBox="0 0 1135 85" fill="none" xmlns="http://www.w3.org/2000/svg">
<g filter="url(#filter0_d_805_7837)">
<path d="M735 14H1093C1106.81 14 1118 25.1929 1118 39V40C1118 53.8071 1106.81 65 1093 65H735V39.5V14Z" fill="white"/>
<path d="M735 13.25H734.25V14V39.5V65V65.75H735H1093C1107.22 65.75 1118.75 54.2213 1118.75 40V39C1118.75 24.7787 1107.22 13.25 1093 13.25H735Z" stroke="#E5E5E7" stroke-width="1.5"/>
</g>
<path d="M893.381 33.4H894.911V46H893.381V33.4ZM894.227 34.84V33.4H896.801C897.617 33.4 898.343 33.556 898.979 33.868C899.627 34.168 900.137 34.6 900.509 35.164C900.893 35.728 901.085 36.4 901.085 37.18C901.085 37.948 900.893 38.62 900.509 39.196C900.137 39.76 899.627 40.198 898.979 40.51C898.343 40.81 897.617 40.96 896.801 40.96H894.227V39.52H896.801C897.617 39.52 898.277 39.322 898.781 38.926C899.297 38.53 899.555 37.948 899.555 37.18C899.555 36.4 899.297 35.818 898.781 35.434C898.277 35.038 897.617 34.84 896.801 34.84H894.227ZM903.153 34.3C903.153 34.024 903.249 33.79 903.441 33.598C903.645 33.406 903.879 33.31 904.143 33.31C904.419 33.31 904.653 33.406 904.845 33.598C905.037 33.79 905.133 34.024 905.133 34.3C905.133 34.564 905.037 34.798 904.845 35.002C904.653 35.194 904.419 35.29 904.143 35.29C903.879 35.29 903.645 35.194 903.441 35.002C903.249 34.798 903.153 34.564 903.153 34.3ZM903.423 37.72H904.863V46H903.423V37.72ZM908.477 43.444C908.477 43.756 908.549 44.026 908.693 44.254C908.849 44.482 909.059 44.656 909.323 44.776C909.599 44.884 909.911 44.938 910.259 44.938C910.703 44.938 911.099 44.848 911.447 44.668C911.807 44.488 912.089 44.236 912.293 43.912C912.509 43.576 912.617 43.192 912.617 42.76L912.905 43.84C912.905 44.368 912.743 44.806 912.419 45.154C912.107 45.502 911.717 45.76 911.249 45.928C910.793 46.096 910.337 46.18 909.881 46.18C909.377 46.18 908.903 46.078 908.459 45.874C908.027 45.658 907.679 45.352 907.415 44.956C907.151 44.56 907.019 44.08 907.019 43.516C907.019 42.712 907.301 42.07 907.865 41.59C908.441 41.098 909.239 40.852 910.259 40.852C910.859 40.852 911.357 40.924 911.753 41.068C912.161 41.2 912.485 41.356 912.725 41.536C912.965 41.704 913.127 41.842 913.211 41.95V42.796C912.791 42.508 912.359 42.304 911.915 42.184C911.471 42.052 910.997 41.986 910.493 41.986C910.025 41.986 909.641 42.046 909.341 42.166C909.053 42.286 908.837 42.454 908.693 42.67C908.549 42.886 908.477 43.144 908.477 43.444ZM908.261 39.628L907.559 38.566C907.871 38.338 908.297 38.11 908.837 37.882C909.389 37.654 910.049 37.54 910.817 37.54C911.465 37.54 912.029 37.642 912.509 37.846C913.001 38.038 913.379 38.32 913.643 38.692C913.919 39.064 914.057 39.52 914.057 40.06V46H912.617V40.258C912.617 39.97 912.569 39.736 912.473 39.556C912.377 39.364 912.239 39.214 912.059 39.106C911.891 38.998 911.693 38.92 911.465 38.872C911.237 38.824 910.997 38.8 910.745 38.8C910.337 38.8 909.965 38.848 909.629 38.944C909.305 39.04 909.029 39.154 908.801 39.286C908.573 39.418 908.393 39.532 908.261 39.628ZM921.805 40.96C921.805 40.276 921.655 39.76 921.355 39.412C921.055 39.064 920.617 38.89 920.041 38.89C919.621 38.89 919.249 38.98 918.925 39.16C918.613 39.328 918.367 39.568 918.187 39.88C918.019 40.192 917.935 40.552 917.935 40.96V46H916.495V37.72H917.935V39.016C918.211 38.512 918.553 38.14 918.961 37.9C919.381 37.66 919.861 37.54 920.401 37.54C921.277 37.54 921.967 37.834 922.471 38.422C922.987 38.998 923.245 39.784 923.245 40.78V46H921.805V40.96ZM925.232 41.86C925.232 41.02 925.418 40.276 925.79 39.628C926.174 38.98 926.69 38.47 927.338 38.098C927.986 37.726 928.712 37.54 929.516 37.54C930.332 37.54 931.058 37.726 931.694 38.098C932.342 38.47 932.852 38.98 933.224 39.628C933.608 40.276 933.8 41.02 933.8 41.86C933.8 42.688 933.608 43.432 933.224 44.092C932.852 44.74 932.342 45.25 931.694 45.622C931.058 45.994 930.332 46.18 929.516 46.18C928.712 46.18 927.986 45.994 927.338 45.622C926.69 45.25 926.174 44.74 925.79 44.092C925.418 43.432 925.232 42.688 925.232 41.86ZM926.69 41.86C926.69 42.436 926.81 42.946 927.05 43.39C927.302 43.834 927.638 44.188 928.058 44.452C928.49 44.704 928.976 44.83 929.516 44.83C930.056 44.83 930.536 44.704 930.956 44.452C931.388 44.188 931.724 43.834 931.964 43.39C932.216 42.946 932.342 42.436 932.342 41.86C932.342 41.284 932.216 40.774 931.964 40.33C931.724 39.874 931.388 39.52 930.956 39.268C930.536 39.016 930.056 38.89 929.516 38.89C928.976 38.89 928.49 39.016 928.058 39.268C927.638 39.52 927.302 39.874 927.05 40.33C926.81 40.774 926.69 41.284 926.69 41.86ZM947.384 31.96H948.824V46H947.384V31.96ZM940.454 41.86C940.454 40.96 940.64 40.192 941.012 39.556C941.384 38.908 941.882 38.41 942.506 38.062C943.13 37.714 943.814 37.54 944.558 37.54C945.254 37.54 945.86 37.714 946.376 38.062C946.892 38.41 947.294 38.908 947.582 39.556C947.882 40.192 948.032 40.96 948.032 41.86C948.032 42.748 947.882 43.516 947.582 44.164C947.294 44.812 946.892 45.31 946.376 45.658C945.86 46.006 945.254 46.18 944.558 46.18C943.814 46.18 943.13 46.006 942.506 45.658C941.882 45.31 941.384 44.812 941.012 44.164C940.64 43.516 940.454 42.748 940.454 41.86ZM941.912 41.86C941.912 42.496 942.038 43.036 942.29 43.48C942.554 43.924 942.902 44.26 943.334 44.488C943.766 44.716 944.234 44.83 944.738 44.83C945.158 44.83 945.572 44.716 945.98 44.488C946.388 44.26 946.724 43.924 946.988 43.48C947.252 43.036 947.384 42.496 947.384 41.86C947.384 41.224 947.252 40.684 946.988 40.24C946.724 39.796 946.388 39.46 945.98 39.232C945.572 39.004 945.158 38.89 944.738 38.89C944.234 38.89 943.766 39.004 943.334 39.232C942.902 39.46 942.554 39.796 942.29 40.24C942.038 40.684 941.912 41.224 941.912 41.86ZM951.44 34.3C951.44 34.024 951.536 33.79 951.728 33.598C951.932 33.406 952.166 33.31 952.43 33.31C952.706 33.31 952.94 33.406 953.132 33.598C953.324 33.79 953.42 34.024 953.42 34.3C953.42 34.564 953.324 34.798 953.132 35.002C952.94 35.194 952.706 35.29 952.43 35.29C952.166 35.29 951.932 35.194 951.728 35.002C951.536 34.798 951.44 34.564 951.44 34.3ZM951.71 37.72H953.15V46H951.71V37.72ZM961.512 31.96H962.952V46H961.512V31.96ZM966.309 43.444C966.309 43.756 966.381 44.026 966.525 44.254C966.681 44.482 966.891 44.656 967.155 44.776C967.431 44.884 967.743 44.938 968.091 44.938C968.535 44.938 968.931 44.848 969.279 44.668C969.639 44.488 969.921 44.236 970.125 43.912C970.341 43.576 970.449 43.192 970.449 42.76L970.737 43.84C970.737 44.368 970.575 44.806 970.251 45.154C969.939 45.502 969.549 45.76 969.081 45.928C968.625 46.096 968.169 46.18 967.713 46.18C967.209 46.18 966.735 46.078 966.291 45.874C965.859 45.658 965.511 45.352 965.247 44.956C964.983 44.56 964.851 44.08 964.851 43.516C964.851 42.712 965.133 42.07 965.697 41.59C966.273 41.098 967.071 40.852 968.091 40.852C968.691 40.852 969.189 40.924 969.585 41.068C969.993 41.2 970.317 41.356 970.557 41.536C970.797 41.704 970.959 41.842 971.043 41.95V42.796C970.623 42.508 970.191 42.304 969.747 42.184C969.303 42.052 968.829 41.986 968.325 41.986C967.857 41.986 967.473 42.046 967.173 42.166C966.885 42.286 966.669 42.454 966.525 42.67C966.381 42.886 966.309 43.144 966.309 43.444ZM966.093 39.628L965.391 38.566C965.703 38.338 966.129 38.11 966.669 37.882C967.221 37.654 967.881 37.54 968.649 37.54C969.297 37.54 969.861 37.642 970.341 37.846C970.833 38.038 971.211 38.32 971.475 38.692C971.751 39.064 971.889 39.52 971.889 40.06V46H970.449V40.258C970.449 39.97 970.401 39.736 970.305 39.556C970.209 39.364 970.071 39.214 969.891 39.106C969.723 38.998 969.525 38.92 969.297 38.872C969.069 38.824 968.829 38.8 968.577 38.8C968.169 38.8 967.797 38.848 967.461 38.944C967.137 39.04 966.861 39.154 966.633 39.286C966.405 39.418 966.225 39.532 966.093 39.628ZM972.889 37.72H974.509L976.849 43.57L979.189 37.72H980.809L976.849 46.63L972.889 37.72ZM981.183 41.86C981.183 41.02 981.369 40.276 981.741 39.628C982.125 38.98 982.641 38.47 983.289 38.098C983.937 37.726 984.663 37.54 985.467 37.54C986.283 37.54 987.009 37.726 987.645 38.098C988.293 38.47 988.803 38.98 989.175 39.628C989.559 40.276 989.751 41.02 989.751 41.86C989.751 42.688 989.559 43.432 989.175 44.092C988.803 44.74 988.293 45.25 987.645 45.622C987.009 45.994 986.283 46.18 985.467 46.18C984.663 46.18 983.937 45.994 983.289 45.622C982.641 45.25 982.125 44.74 981.741 44.092C981.369 43.432 981.183 42.688 981.183 41.86ZM982.641 41.86C982.641 42.436 982.761 42.946 983.001 43.39C983.253 43.834 983.589 44.188 984.009 44.452C984.441 44.704 984.927 44.83 985.467 44.83C986.007 44.83 986.487 44.704 986.907 44.452C987.339 44.188 987.675 43.834 987.915 43.39C988.167 42.946 988.293 42.436 988.293 41.86C988.293 41.284 988.167 40.774 987.915 40.33C987.675 39.874 987.339 39.52 986.907 39.268C986.487 39.016 986.007 38.89 985.467 38.89C984.927 38.89 984.441 39.016 984.009 39.268C983.589 39.52 983.253 39.874 983.001 40.33C982.761 40.774 982.641 41.284 982.641 41.86ZM993.169 37.72V46H991.729V37.72H993.169ZM995.671 39.304C995.479 39.16 995.305 39.058 995.149 38.998C994.993 38.926 994.795 38.89 994.555 38.89C994.195 38.89 993.913 38.98 993.709 39.16C993.505 39.34 993.361 39.586 993.277 39.898C993.205 40.21 993.169 40.564 993.169 40.96H992.521C992.521 40.3 992.635 39.718 992.863 39.214C993.103 38.698 993.409 38.29 993.781 37.99C994.153 37.69 994.531 37.54 994.915 37.54C995.215 37.54 995.491 37.582 995.743 37.666C996.007 37.738 996.247 37.888 996.463 38.116L995.671 39.304ZM996.915 41.86C996.915 41.02 997.101 40.276 997.473 39.628C997.857 38.98 998.373 38.47 999.021 38.098C999.669 37.726 1000.4 37.54 1001.2 37.54C1002.02 37.54 1002.74 37.726 1003.38 38.098C1004.03 38.47 1004.54 38.98 1004.91 39.628C1005.29 40.276 1005.48 41.02 1005.48 41.86C1005.48 42.688 1005.29 43.432 1004.91 44.092C1004.54 44.74 1004.03 45.25 1003.38 45.622C1002.74 45.994 1002.02 46.18 1001.2 46.18C1000.4 46.18 999.669 45.994 999.021 45.622C998.373 45.25 997.857 44.74 997.473 44.092C997.101 43.432 996.915 42.688 996.915 41.86ZM998.373 41.86C998.373 42.436 998.493 42.946 998.733 43.39C998.985 43.834 999.321 44.188 999.741 44.452C1000.17 44.704 1000.66 44.83 1001.2 44.83C1001.74 44.83 1002.22 44.704 1002.64 44.452C1003.07 44.188 1003.41 43.834 1003.65 43.39C1003.9 42.946 1004.03 42.436 1004.03 41.86C1004.03 41.284 1003.9 40.774 1003.65 40.33C1003.41 39.874 1003.07 39.52 1002.64 39.268C1002.22 39.016 1001.74 38.89 1001.2 38.89C1000.66 38.89 1000.17 39.016 999.741 39.268C999.321 39.52 998.985 39.874 998.733 40.33C998.493 40.774 998.373 41.284 998.373 41.86Z" fill="#1D2125"/>
<path d="M872.694 49H865.954C864.92 49 864.403 49 864.008 48.782C863.661 48.5903 863.378 48.2843 863.201 47.908C863 47.4802 863 46.9201 863 45.8V36.2C863 35.0799 863 34.5198 863.201 34.092C863.378 33.7157 863.661 33.4097 864.008 33.218C864.403 33 864.92 33 865.954 33H876.663C877.697 33 878.215 33 878.609 33.218C878.957 33.4097 879.239 33.7157 879.416 34.092C879.618 34.5198 879.618 35.0799 879.618 36.2V41.5M866.693 31V33M875.925 31V33M863 37H879.618M872.694 41.0001L866.693 41M869.462 45.0001L866.693 45M872.694 51L874.869 50.095C875.032 50.0597 875.114 50.042 875.19 50.0097C875.257 49.9811 875.322 49.9439 875.381 49.899C875.448 49.8484 875.507 49.7848 875.624 49.6574C875.624 49.6574 879.99 44.5523 880.5 44C881.01 43.4477 881.01 42.5523 880.5 42C879.99 41.4477 879.163 41.4477 878.654 42C878.144 42.5523 873.778 47.6574 873.778 47.6574C873.66 47.7848 873.602 47.8484 873.555 47.921C873.513 47.9853 873.479 48.0548 873.453 48.1279C873.423 48.2102 873.406 48.2985 873.374 48.475L872.694 51Z" stroke="#1D2125" stroke-width="1.3" stroke-linecap="round" stroke-linejoin="round"/>
<g filter="url(#filter1_d_805_7837)">
<path d="M380 14H743L763 39.5L743 65H380V39.5V14Z" fill="white"/>
<path d="M380 13.25H379.25V14V39.5V65V65.75H380H743H743.365L743.59 65.4629L763.59 39.9629L763.953 39.5L763.59 39.0371L743.59 13.5371L743.365 13.25H743H380Z" stroke="#E5E5E7" stroke-width="1.5"/>
</g>
<path d="M497.277 42.22L497.817 40.78H503.397L503.937 42.22H497.277ZM500.571 36.244L498.447 41.248L498.303 41.572L496.431 46H494.721L500.571 32.77L506.421 46H504.711L502.875 41.68L502.731 41.32L500.571 36.244ZM509.304 37.72V46H507.864V37.72H509.304ZM511.806 39.304C511.614 39.16 511.44 39.058 511.284 38.998C511.128 38.926 510.93 38.89 510.69 38.89C510.33 38.89 510.048 38.98 509.844 39.16C509.64 39.34 509.496 39.586 509.412 39.898C509.34 40.21 509.304 40.564 509.304 40.96H508.656C508.656 40.3 508.77 39.718 508.998 39.214C509.238 38.698 509.544 38.29 509.916 37.99C510.288 37.69 510.666 37.54 511.05 37.54C511.35 37.54 511.626 37.582 511.878 37.666C512.142 37.738 512.382 37.888 512.598 38.116L511.806 39.304ZM513.212 46.54H514.67C514.67 46.936 514.778 47.302 514.994 47.638C515.21 47.986 515.516 48.262 515.912 48.466C516.308 48.682 516.776 48.79 517.316 48.79C517.736 48.79 518.15 48.688 518.558 48.484C518.966 48.28 519.302 47.956 519.566 47.512C519.842 47.08 519.98 46.516 519.98 45.82V37.72H521.42V45.82C521.42 46.768 521.222 47.56 520.826 48.196C520.43 48.844 519.92 49.33 519.296 49.654C518.672 49.978 518.012 50.14 517.316 50.14C516.512 50.14 515.798 49.99 515.174 49.69C514.562 49.39 514.082 48.964 513.734 48.412C513.386 47.872 513.212 47.248 513.212 46.54ZM513.05 41.86C513.05 40.96 513.236 40.192 513.608 39.556C513.98 38.908 514.478 38.41 515.102 38.062C515.726 37.714 516.41 37.54 517.154 37.54C517.85 37.54 518.456 37.714 518.972 38.062C519.488 38.41 519.89 38.908 520.178 39.556C520.478 40.192 520.628 40.96 520.628 41.86C520.628 42.748 520.478 43.516 520.178 44.164C519.89 44.812 519.488 45.31 518.972 45.658C518.456 46.006 517.85 46.18 517.154 46.18C516.41 46.18 515.726 46.006 515.102 45.658C514.478 45.31 513.98 44.812 513.608 44.164C513.236 43.516 513.05 42.748 513.05 41.86ZM514.508 41.86C514.508 42.496 514.634 43.036 514.886 43.48C515.15 43.924 515.498 44.26 515.93 44.488C516.362 44.716 516.83 44.83 517.334 44.83C517.754 44.83 518.168 44.716 518.576 44.488C518.984 44.26 519.32 43.924 519.584 43.48C519.848 43.036 519.98 42.496 519.98 41.86C519.98 41.38 519.902 40.96 519.746 40.6C519.59 40.228 519.38 39.916 519.116 39.664C518.864 39.412 518.582 39.22 518.27 39.088C517.958 38.956 517.646 38.89 517.334 38.89C516.83 38.89 516.362 39.004 515.93 39.232C515.498 39.46 515.15 39.796 514.886 40.24C514.634 40.684 514.508 41.224 514.508 41.86ZM523.316 41.86C523.316 41.02 523.502 40.276 523.874 39.628C524.258 38.98 524.774 38.47 525.422 38.098C526.07 37.726 526.796 37.54 527.6 37.54C528.416 37.54 529.142 37.726 529.778 38.098C530.426 38.47 530.936 38.98 531.308 39.628C531.692 40.276 531.884 41.02 531.884 41.86C531.884 42.688 531.692 43.432 531.308 44.092C530.936 44.74 530.426 45.25 529.778 45.622C529.142 45.994 528.416 46.18 527.6 46.18C526.796 46.18 526.07 45.994 525.422 45.622C524.774 45.25 524.258 44.74 523.874 44.092C523.502 43.432 523.316 42.688 523.316 41.86ZM524.774 41.86C524.774 42.436 524.894 42.946 525.134 43.39C525.386 43.834 525.722 44.188 526.142 44.452C526.574 44.704 527.06 44.83 527.6 44.83C528.14 44.83 528.62 44.704 529.04 44.452C529.472 44.188 529.808 43.834 530.048 43.39C530.3 42.946 530.426 42.436 530.426 41.86C530.426 41.284 530.3 40.774 530.048 40.33C529.808 39.874 529.472 39.52 529.04 39.268C528.62 39.016 528.14 38.89 527.6 38.89C527.06 38.89 526.574 39.016 526.142 39.268C525.722 39.52 525.386 39.874 525.134 40.33C524.894 40.774 524.774 41.284 524.774 41.86ZM545.202 40.78V46H543.762V40.96C543.762 40.252 543.63 39.73 543.366 39.394C543.114 39.058 542.718 38.89 542.178 38.89C541.782 38.89 541.44 38.974 541.152 39.142C540.864 39.298 540.642 39.532 540.486 39.844C540.33 40.156 540.252 40.528 540.252 40.96V46H538.812V40.96C538.812 40.252 538.68 39.73 538.416 39.394C538.164 39.058 537.768 38.89 537.228 38.89C536.832 38.89 536.49 38.974 536.202 39.142C535.914 39.298 535.692 39.532 535.536 39.844C535.38 40.156 535.302 40.528 535.302 40.96V46H533.862V37.72H535.302V38.926C535.554 38.458 535.866 38.11 536.238 37.882C536.622 37.654 537.072 37.54 537.588 37.54C538.164 37.54 538.656 37.678 539.064 37.954C539.484 38.218 539.79 38.596 539.982 39.088C540.27 38.572 540.63 38.188 541.062 37.936C541.494 37.672 541.986 37.54 542.538 37.54C543.102 37.54 543.582 37.666 543.978 37.918C544.374 38.17 544.674 38.542 544.878 39.034C545.094 39.514 545.202 40.096 545.202 40.78ZM551.111 46.18C550.343 46.18 549.659 46 549.059 45.64C548.471 45.268 548.009 44.758 547.673 44.11C547.349 43.462 547.187 42.712 547.187 41.86C547.187 40.996 547.355 40.24 547.691 39.592C548.039 38.944 548.519 38.44 549.131 38.08C549.755 37.72 550.475 37.54 551.291 37.54C552.107 37.54 552.803 37.714 553.379 38.062C553.967 38.398 554.417 38.884 554.729 39.52C555.041 40.156 555.197 40.912 555.197 41.788C555.197 41.872 555.191 41.962 555.179 42.058C555.179 42.142 555.179 42.196 555.179 42.22H548.105V40.996H554.045L553.469 41.824C553.505 41.764 553.541 41.674 553.577 41.554C553.613 41.422 553.631 41.314 553.631 41.23C553.631 40.738 553.529 40.312 553.325 39.952C553.133 39.592 552.863 39.31 552.515 39.106C552.167 38.902 551.759 38.8 551.291 38.8C550.739 38.8 550.265 38.92 549.869 39.16C549.485 39.388 549.185 39.724 548.969 40.168C548.765 40.6 548.657 41.134 548.645 41.77C548.645 42.418 548.747 42.97 548.951 43.426C549.155 43.882 549.455 44.23 549.851 44.47C550.247 44.71 550.727 44.83 551.291 44.83C551.855 44.83 552.353 44.71 552.785 44.47C553.217 44.218 553.583 43.84 553.883 43.336L555.053 44.074C554.621 44.77 554.075 45.298 553.415 45.658C552.767 46.006 551.999 46.18 551.111 46.18ZM562.48 40.96C562.48 40.276 562.33 39.76 562.03 39.412C561.73 39.064 561.292 38.89 560.716 38.89C560.296 38.89 559.924 38.98 559.6 39.16C559.288 39.328 559.042 39.568 558.862 39.88C558.694 40.192 558.61 40.552 558.61 40.96V46H557.17V37.72H558.61V39.016C558.886 38.512 559.228 38.14 559.636 37.9C560.056 37.66 560.536 37.54 561.076 37.54C561.952 37.54 562.642 37.834 563.146 38.422C563.662 38.998 563.92 39.784 563.92 40.78V46H562.48V40.96ZM565.367 37.72H569.507V39.07H565.367V37.72ZM566.717 34.84H568.157V46H566.717V34.84ZM570.952 34.3C570.952 34.024 571.048 33.79 571.24 33.598C571.444 33.406 571.678 33.31 571.942 33.31C572.218 33.31 572.452 33.406 572.644 33.598C572.836 33.79 572.932 34.024 572.932 34.3C572.932 34.564 572.836 34.798 572.644 35.002C572.452 35.194 572.218 35.29 571.942 35.29C571.678 35.29 571.444 35.194 571.24 35.002C571.048 34.798 570.952 34.564 570.952 34.3ZM571.222 37.72H572.662V46H571.222V37.72ZM584.228 46.18C583.46 46.18 582.776 46 582.176 45.64C581.588 45.268 581.126 44.758 580.79 44.11C580.466 43.462 580.304 42.712 580.304 41.86C580.304 40.996 580.472 40.24 580.808 39.592C581.156 38.944 581.636 38.44 582.248 38.08C582.872 37.72 583.592 37.54 584.408 37.54C585.224 37.54 585.92 37.714 586.496 38.062C587.084 38.398 587.534 38.884 587.846 39.52C588.158 40.156 588.314 40.912 588.314 41.788C588.314 41.872 588.308 41.962 588.296 42.058C588.296 42.142 588.296 42.196 588.296 42.22H581.222V40.996H587.162L586.586 41.824C586.622 41.764 586.658 41.674 586.694 41.554C586.73 41.422 586.748 41.314 586.748 41.23C586.748 40.738 586.646 40.312 586.442 39.952C586.25 39.592 585.98 39.31 585.632 39.106C585.284 38.902 584.876 38.8 584.408 38.8C583.856 38.8 583.382 38.92 582.986 39.16C582.602 39.388 582.302 39.724 582.086 40.168C581.882 40.6 581.774 41.134 581.762 41.77C581.762 42.418 581.864 42.97 582.068 43.426C582.272 43.882 582.572 44.23 582.968 44.47C583.364 44.71 583.844 44.83 584.408 44.83C584.972 44.83 585.47 44.71 585.902 44.47C586.334 44.218 586.7 43.84 587 43.336L588.17 44.074C587.738 44.77 587.192 45.298 586.532 45.658C585.884 46.006 585.116 46.18 584.228 46.18ZM598.024 39.79H599.734L604.234 46H602.344L598.024 39.79ZM595.774 33.4H597.304V46H595.774V33.4ZM596.62 34.75V33.4H599.194C600.01 33.4 600.736 33.556 601.372 33.868C602.02 34.168 602.53 34.6 602.902 35.164C603.286 35.728 603.478 36.4 603.478 37.18C603.478 37.948 603.286 38.62 602.902 39.196C602.53 39.76 602.02 40.198 601.372 40.51C600.736 40.81 600.01 40.96 599.194 40.96H596.62V39.61H599.194C599.734 39.61 600.208 39.514 600.616 39.322C601.036 39.13 601.36 38.854 601.588 38.494C601.828 38.134 601.948 37.696 601.948 37.18C601.948 36.664 601.828 36.226 601.588 35.866C601.36 35.506 601.036 35.23 600.616 35.038C600.208 34.846 599.734 34.75 599.194 34.75H596.62ZM605.756 34.3C605.756 34.024 605.852 33.79 606.044 33.598C606.248 33.406 606.482 33.31 606.746 33.31C607.022 33.31 607.256 33.406 607.448 33.598C607.64 33.79 607.736 34.024 607.736 34.3C607.736 34.564 607.64 34.798 607.448 35.002C607.256 35.194 607.022 35.29 606.746 35.29C606.482 35.29 606.248 35.194 606.044 35.002C605.852 34.798 605.756 34.564 605.756 34.3ZM606.026 37.72H607.466V46H606.026V37.72ZM609.802 37.72H613.942V39.07H609.802V37.72ZM613.798 33.688C613.678 33.484 613.534 33.358 613.366 33.31C613.21 33.25 613.06 33.22 612.916 33.22C612.736 33.22 612.58 33.274 612.448 33.382C612.328 33.478 612.232 33.646 612.16 33.886C612.088 34.126 612.052 34.444 612.052 34.84V46H610.612V34.66C610.612 34 610.708 33.46 610.9 33.04C611.092 32.62 611.362 32.308 611.71 32.104C612.07 31.888 612.502 31.78 613.006 31.78C613.27 31.78 613.504 31.816 613.708 31.888C613.912 31.96 614.086 32.05 614.23 32.158C614.386 32.266 614.506 32.38 614.59 32.5L613.798 33.688ZM618.786 46.18C618.018 46.18 617.334 46 616.734 45.64C616.146 45.268 615.684 44.758 615.348 44.11C615.024 43.462 614.862 42.712 614.862 41.86C614.862 40.996 615.03 40.24 615.366 39.592C615.714 38.944 616.194 38.44 616.806 38.08C617.43 37.72 618.15 37.54 618.966 37.54C619.782 37.54 620.478 37.714 621.054 38.062C621.642 38.398 622.092 38.884 622.404 39.52C622.716 40.156 622.872 40.912 622.872 41.788C622.872 41.872 622.866 41.962 622.854 42.058C622.854 42.142 622.854 42.196 622.854 42.22H615.78V40.996H621.72L621.144 41.824C621.18 41.764 621.216 41.674 621.252 41.554C621.288 41.422 621.306 41.314 621.306 41.23C621.306 40.738 621.204 40.312 621 39.952C620.808 39.592 620.538 39.31 620.19 39.106C619.842 38.902 619.434 38.8 618.966 38.8C618.414 38.8 617.94 38.92 617.544 39.16C617.16 39.388 616.86 39.724 616.644 40.168C616.44 40.6 616.332 41.134 616.32 41.77C616.32 42.418 616.422 42.97 616.626 43.426C616.83 43.882 617.13 44.23 617.526 44.47C617.922 44.71 618.402 44.83 618.966 44.83C619.53 44.83 620.028 44.71 620.46 44.47C620.892 44.218 621.258 43.84 621.558 43.336L622.728 44.074C622.296 44.77 621.75 45.298 621.09 45.658C620.442 46.006 619.674 46.18 618.786 46.18ZM626.286 37.72V46H624.846V37.72H626.286ZM628.788 39.304C628.596 39.16 628.422 39.058 628.266 38.998C628.11 38.926 627.912 38.89 627.672 38.89C627.312 38.89 627.03 38.98 626.826 39.16C626.622 39.34 626.478 39.586 626.394 39.898C626.322 40.21 626.286 40.564 626.286 40.96H625.638C625.638 40.3 625.752 39.718 625.98 39.214C626.22 38.698 626.526 38.29 626.898 37.99C627.27 37.69 627.648 37.54 628.032 37.54C628.332 37.54 628.608 37.582 628.86 37.666C629.124 37.738 629.364 37.888 629.58 38.116L628.788 39.304ZM631.016 34.3C631.016 34.024 631.112 33.79 631.304 33.598C631.508 33.406 631.742 33.31 632.006 33.31C632.282 33.31 632.516 33.406 632.708 33.598C632.9 33.79 632.996 34.024 632.996 34.3C632.996 34.564 632.9 34.798 632.708 35.002C632.516 35.194 632.282 35.29 632.006 35.29C631.742 35.29 631.508 35.194 631.304 35.002C631.112 34.798 631.016 34.564 631.016 34.3ZM631.286 37.72H632.726V46H631.286V37.72ZM647.032 40.78V46H645.592V40.96C645.592 40.252 645.46 39.73 645.196 39.394C644.944 39.058 644.548 38.89 644.008 38.89C643.612 38.89 643.27 38.974 642.982 39.142C642.694 39.298 642.472 39.532 642.316 39.844C642.16 40.156 642.082 40.528 642.082 40.96V46H640.642V40.96C640.642 40.252 640.51 39.73 640.246 39.394C639.994 39.058 639.598 38.89 639.058 38.89C638.662 38.89 638.32 38.974 638.032 39.142C637.744 39.298 637.522 39.532 637.366 39.844C637.21 40.156 637.132 40.528 637.132 40.96V46H635.692V37.72H637.132V38.926C637.384 38.458 637.696 38.11 638.068 37.882C638.452 37.654 638.902 37.54 639.418 37.54C639.994 37.54 640.486 37.678 640.894 37.954C641.314 38.218 641.62 38.596 641.812 39.088C642.1 38.572 642.46 38.188 642.892 37.936C643.324 37.672 643.816 37.54 644.368 37.54C644.932 37.54 645.412 37.666 645.808 37.918C646.204 38.17 646.504 38.542 646.708 39.034C646.924 39.514 647.032 40.096 647.032 40.78ZM652.941 46.18C652.173 46.18 651.489 46 650.889 45.64C650.301 45.268 649.839 44.758 649.503 44.11C649.179 43.462 649.017 42.712 649.017 41.86C649.017 40.996 649.185 40.24 649.521 39.592C649.869 38.944 650.349 38.44 650.961 38.08C651.585 37.72 652.305 37.54 653.121 37.54C653.937 37.54 654.633 37.714 655.209 38.062C655.797 38.398 656.247 38.884 656.559 39.52C656.871 40.156 657.027 40.912 657.027 41.788C657.027 41.872 657.021 41.962 657.009 42.058C657.009 42.142 657.009 42.196 657.009 42.22H649.935V40.996H655.875L655.299 41.824C655.335 41.764 655.371 41.674 655.407 41.554C655.443 41.422 655.461 41.314 655.461 41.23C655.461 40.738 655.359 40.312 655.155 39.952C654.963 39.592 654.693 39.31 654.345 39.106C653.997 38.902 653.589 38.8 653.121 38.8C652.569 38.8 652.095 38.92 651.699 39.16C651.315 39.388 651.015 39.724 650.799 40.168C650.595 40.6 650.487 41.134 650.475 41.77C650.475 42.418 650.577 42.97 650.781 43.426C650.985 43.882 651.285 44.23 651.681 44.47C652.077 44.71 652.557 44.83 653.121 44.83C653.685 44.83 654.183 44.71 654.615 44.47C655.047 44.218 655.413 43.84 655.713 43.336L656.883 44.074C656.451 44.77 655.905 45.298 655.245 45.658C654.597 46.006 653.829 46.18 652.941 46.18ZM664.31 40.96C664.31 40.276 664.16 39.76 663.86 39.412C663.56 39.064 663.122 38.89 662.546 38.89C662.126 38.89 661.754 38.98 661.43 39.16C661.118 39.328 660.872 39.568 660.692 39.88C660.524 40.192 660.44 40.552 660.44 40.96V46H659V37.72H660.44V39.016C660.716 38.512 661.058 38.14 661.466 37.9C661.886 37.66 662.366 37.54 662.906 37.54C663.782 37.54 664.472 37.834 664.976 38.422C665.492 38.998 665.75 39.784 665.75 40.78V46H664.31V40.96ZM667.197 37.72H671.337V39.07H667.197V37.72ZM668.547 34.84H669.987V46H668.547V34.84ZM672.782 34.3C672.782 34.024 672.878 33.79 673.07 33.598C673.274 33.406 673.508 33.31 673.772 33.31C674.048 33.31 674.282 33.406 674.474 33.598C674.666 33.79 674.762 34.024 674.762 34.3C674.762 34.564 674.666 34.798 674.474 35.002C674.282 35.194 674.048 35.29 673.772 35.29C673.508 35.29 673.274 35.194 673.07 35.002C672.878 34.798 672.782 34.564 672.782 34.3ZM673.052 37.72H674.492V46H673.052V37.72Z" fill="#1D2125"/>
<path d="M475.478 30H470.391C469.204 30 468.611 30 468.157 30.2422C467.758 30.4553 467.434 30.7952 467.231 31.2134C467 31.6887 467 32.311 467 33.5556V46.4444C467 47.689 467.231 48.7867 467.231 48.7867C467.231 48.7867 467.758 49.5448 468.157 49.7578C468.611 50 469.204 50 470.391 50H478.426C478.426 50 479.922 50 480.92 49C481.917 48 481.917 46.5022 481.917 45C481.917 42 481.836 36.6667 481.836 36.6667M475.478 30L481.836 36.6667M475.478 30V34.8889C475.478 35.5112 475.478 35.8223 475.593 36.06C475.695 36.2691 475.857 36.439 476.056 36.5456C476.283 36.6667 476.58 36.6667 477.173 36.6667H481.836M471.239 45.5556H473.888M471.239 41.1111H477.597M471.239 36.6667H472.299" stroke="#21225F" stroke-width="1.1" stroke-linecap="round" stroke-linejoin="round"/>
<g filter="url(#filter2_d_805_7837)">
<path d="M17 39C17 25.1929 28.1929 14 42 14H380L400 39.5L380 65H42C28.1929 65 17 53.8071 17 40V39Z" fill="white"/>
<path d="M380.59 13.5371L380.365 13.25H380H42C27.7787 13.25 16.25 24.7787 16.25 39V40C16.25 54.2213 27.7787 65.75 42 65.75H380H380.365L380.59 65.4629L400.59 39.9629L400.953 39.5L400.59 39.0371L380.59 13.5371Z" stroke="#E5E5E7" stroke-width="1.5"/>
</g>
<path d="M150.417 27.788L150.417 27.788C150.341 27.745 150.232 27.7049 150.023 27.6645C149.808 27.6232 149.53 27.5888 149.123 27.5388C148.716 27.4888 148.438 27.455 148.22 27.4431C148.006 27.4316 147.891 27.4441 147.806 27.4674L147.806 27.4674C147.505 27.5508 147.25 27.7501 147.096 28.0212L146.623 27.7531L147.096 28.0212C147.043 28.1151 146.997 28.2545 146.947 28.5616C146.947 28.5616 146.947 28.5616 146.947 28.5616L146.404 28.4742C146.328 28.9495 146.028 29.3614 145.584 29.5494L150.417 27.788ZM150.417 27.788C150.69 27.9418 150.889 28.1969 150.973 28.4972L150.973 28.4972C151.002 28.6011 151.013 28.7475 150.986 29.0576L150.986 29.0577C150.931 29.7093 151.19 30.372 151.739 30.7853C152.289 31.1985 152.997 31.264 153.609 31.0316L153.609 31.0316C153.9 30.9209 154.044 30.8912 154.153 30.8903L154.153 30.8903C154.466 30.8876 154.766 31.0091 154.989 31.2278L154.989 31.2279M150.417 27.788L154.989 31.2279M154.989 31.2279C155.052 31.2889 155.12 31.3825 155.217 31.5726C155.316 31.767 155.426 32.0242 155.586 32.4012C155.746 32.7782 155.855 33.0356 155.927 33.2417M154.989 31.2279L155.927 33.2417M155.927 33.2417C155.997 33.4429 156.016 33.5572 156.017 33.644L155.927 33.2417ZM140.597 36.6323C140.673 36.5553 140.795 36.4722 141.077 36.34L156.017 33.6442C156.02 33.9556 155.899 34.2554 155.68 34.4776C155.604 34.5547 155.483 34.6377 155.2 34.7699L155.2 34.7699C154.608 35.0473 154.162 35.6019 154.079 36.2842C153.995 36.9665 154.293 37.6126 154.801 38.0251L154.801 38.0251C155.042 38.2214 155.14 38.3314 155.195 38.4246C155.354 38.6932 155.399 39.0135 155.321 39.3151C155.299 39.3992 155.252 39.5052 155.136 39.6836C155.017 39.8662 154.848 40.0896 154.602 40.4166L154.602 40.4166C154.355 40.7436 154.186 40.9666 154.043 41.1314C153.903 41.2924 153.814 41.3666 153.739 41.4108L153.739 41.4108C153.47 41.5691 153.148 41.6142 152.846 41.5359L152.846 41.5359C152.74 41.5087 152.608 41.4451 152.352 41.2672C151.815 40.8938 151.111 40.7858 150.478 41.054C149.845 41.3222 149.434 41.9026 149.33 42.5483C149.281 42.8554 149.234 42.9948 149.181 43.0887L149.181 43.0887C149.027 43.3598 148.772 43.5592 148.471 43.6425C148.387 43.6658 148.271 43.6783 148.058 43.6668C147.84 43.6549 147.561 43.6211 147.154 43.5711C146.747 43.5211 146.469 43.4867 146.255 43.4454C146.045 43.405 145.936 43.3649 145.86 43.3219C145.588 43.1682 145.388 42.9129 145.305 42.6127C145.276 42.5088 145.264 42.3623 145.291 42.0524C145.346 41.4006 145.087 40.7379 144.538 40.3246L144.538 40.3245C143.989 39.9114 143.28 39.8458 142.669 40.0783C142.377 40.189 142.233 40.2187 142.125 40.2196C141.812 40.2222 141.511 40.1007 141.288 39.882L141.288 39.882C141.226 39.821 141.157 39.7274 141.06 39.5374C140.961 39.3429 140.852 39.0856 140.691 38.7087C140.531 38.3318 140.422 38.0743 140.35 37.8682C140.28 37.6668 140.261 37.5526 140.26 37.4658C140.257 37.1544 140.378 36.8546 140.597 36.6324L140.597 36.6323ZM147.756 38.6695C149.478 38.8809 151.046 37.6589 151.258 35.9379C151.469 34.2169 150.243 32.6518 148.521 32.4404C146.799 32.229 145.231 33.451 145.02 35.172C144.808 36.893 146.035 38.4581 147.756 38.6695Z" stroke="#21225F" stroke-width="1.1"/>
<path d="M136.215 50.0419L137.513 49.006L137.523 48.9987C137.793 48.7826 137.93 48.6736 138.082 48.596C138.219 48.5264 138.365 48.4756 138.515 48.4448C138.685 48.4101 138.861 48.4101 139.216 48.4101H146.612C147.564 48.4101 148.041 48.4101 148.405 48.225C148.726 48.0621 148.987 47.8019 149.15 47.4821C149.336 47.1189 149.336 46.6439 149.336 45.694V39.2302C149.336 38.2803 149.336 37.8046 149.15 37.4414C148.987 37.1216 148.725 36.8618 148.405 36.6989C148.04 36.5137 147.564 36.5137 146.61 36.5137H136.727C135.772 36.5137 135.295 36.5137 134.93 36.6989C134.61 36.8618 134.349 37.1216 134.186 37.4414C134 37.805 134 38.2812 134 39.233V48.9805C134 49.886 134 50.3387 134.186 50.5713C134.348 50.7735 134.593 50.8912 134.853 50.891C135.151 50.8906 135.506 50.6076 136.215 50.0419Z" fill="white" stroke="#21225F" stroke-width="1.1" stroke-linecap="round" stroke-linejoin="round"/>
<path d="M137.266 43.0632C137.266 42.8179 137.351 42.6099 137.522 42.4392C137.703 42.2686 137.911 42.1832 138.146 42.1832C138.391 42.1832 138.599 42.2686 138.77 42.4392C138.941 42.6099 139.026 42.8179 139.026 43.0632C139.026 43.2979 138.941 43.5059 138.77 43.6872C138.599 43.8579 138.391 43.9432 138.146 43.9432C137.911 43.9432 137.703 43.8579 137.522 43.6872C137.351 43.5059 137.266 43.2979 137.266 43.0632ZM140.943 43.0632C140.943 42.8179 141.028 42.6099 141.199 42.4392C141.38 42.2686 141.588 42.1832 141.823 42.1832C142.068 42.1832 142.276 42.2686 142.447 42.4392C142.618 42.6099 142.703 42.8179 142.703 43.0632C142.703 43.2979 142.618 43.5059 142.447 43.6872C142.276 43.8579 142.068 43.9432 141.823 43.9432C141.588 43.9432 141.38 43.8579 141.199 43.6872C141.028 43.5059 140.943 43.2979 140.943 43.0632ZM144.62 43.0632C144.62 42.8179 144.705 42.6099 144.876 42.4392C145.057 42.2686 145.265 42.1832 145.5 42.1832C145.745 42.1832 145.953 42.2686 146.124 42.4392C146.295 42.6099 146.38 42.8179 146.38 43.0632C146.38 43.2979 146.295 43.5059 146.124 43.6872C145.953 43.8579 145.745 43.9432 145.5 43.9432C145.265 43.9432 145.057 43.8579 144.876 43.6872C144.705 43.5059 144.62 43.2979 144.62 43.0632Z" fill="#21225F"/>
<path d="M169.131 39.4034C169.131 40.3754 169.347 41.2334 169.779 41.9774C170.223 42.7214 170.799 43.3034 171.507 43.7234C172.215 44.1434 172.983 44.3534 173.811 44.3534C174.411 44.3534 174.957 44.2754 175.449 44.1194C175.953 43.9634 176.409 43.7474 176.817 43.4714C177.225 43.1834 177.573 42.8534 177.861 42.4814V44.4974C177.333 44.9654 176.757 45.3134 176.133 45.5414C175.509 45.7694 174.735 45.8834 173.811 45.8834C172.935 45.8834 172.113 45.7274 171.345 45.4154C170.589 45.0914 169.923 44.6414 169.347 44.0654C168.771 43.4774 168.321 42.7874 167.997 41.9954C167.673 41.2034 167.511 40.3394 167.511 39.4034C167.511 38.4674 167.673 37.6034 167.997 36.8114C168.321 36.0194 168.771 35.3354 169.347 34.7594C169.923 34.1714 170.589 33.7214 171.345 33.4094C172.113 33.0854 172.935 32.9234 173.811 32.9234C174.735 32.9234 175.509 33.0374 176.133 33.2654C176.757 33.4934 177.333 33.8414 177.861 34.3094V36.3254C177.573 35.9534 177.225 35.6294 176.817 35.3534C176.409 35.0654 175.953 34.8434 175.449 34.6874C174.957 34.5314 174.411 34.4534 173.811 34.4534C172.983 34.4534 172.215 34.6634 171.507 35.0834C170.799 35.5034 170.223 36.0854 169.779 36.8294C169.347 37.5614 169.131 38.4194 169.131 39.4034ZM179.743 41.5634C179.743 40.7234 179.929 39.9794 180.301 39.3314C180.685 38.6834 181.201 38.1734 181.849 37.8014C182.497 37.4294 183.223 37.2434 184.027 37.2434C184.843 37.2434 185.569 37.4294 186.205 37.8014C186.853 38.1734 187.363 38.6834 187.735 39.3314C188.119 39.9794 188.311 40.7234 188.311 41.5634C188.311 42.3914 188.119 43.1354 187.735 43.7954C187.363 44.4434 186.853 44.9534 186.205 45.3254C185.569 45.6974 184.843 45.8834 184.027 45.8834C183.223 45.8834 182.497 45.6974 181.849 45.3254C181.201 44.9534 180.685 44.4434 180.301 43.7954C179.929 43.1354 179.743 42.3914 179.743 41.5634ZM181.201 41.5634C181.201 42.1394 181.321 42.6494 181.561 43.0934C181.813 43.5374 182.149 43.8914 182.569 44.1554C183.001 44.4074 183.487 44.5334 184.027 44.5334C184.567 44.5334 185.047 44.4074 185.467 44.1554C185.899 43.8914 186.235 43.5374 186.475 43.0934C186.727 42.6494 186.853 42.1394 186.853 41.5634C186.853 40.9874 186.727 40.4774 186.475 40.0334C186.235 39.5774 185.899 39.2234 185.467 38.9714C185.047 38.7194 184.567 38.5934 184.027 38.5934C183.487 38.5934 183.001 38.7194 182.569 38.9714C182.149 39.2234 181.813 39.5774 181.561 40.0334C181.321 40.4774 181.201 40.9874 181.201 41.5634ZM195.599 40.6634C195.599 39.9794 195.449 39.4634 195.149 39.1154C194.849 38.7674 194.411 38.5934 193.835 38.5934C193.415 38.5934 193.043 38.6834 192.719 38.8634C192.407 39.0314 192.161 39.2714 191.981 39.5834C191.813 39.8954 191.729 40.2554 191.729 40.6634V45.7034H190.289V37.4234H191.729V38.7194C192.005 38.2154 192.347 37.8434 192.755 37.6034C193.175 37.3634 193.655 37.2434 194.195 37.2434C195.071 37.2434 195.761 37.5374 196.265 38.1254C196.781 38.7014 197.039 39.4874 197.039 40.4834V45.7034H195.599V40.6634ZM199.116 37.4234H203.256V38.7734H199.116V37.4234ZM203.112 33.3914C202.992 33.1874 202.848 33.0614 202.68 33.0134C202.524 32.9534 202.374 32.9234 202.23 32.9234C202.05 32.9234 201.894 32.9774 201.762 33.0854C201.642 33.1814 201.546 33.3494 201.474 33.5894C201.402 33.8294 201.366 34.1474 201.366 34.5434V45.7034H199.926V34.3634C199.926 33.7034 200.022 33.1634 200.214 32.7434C200.406 32.3234 200.676 32.0114 201.024 31.8074C201.384 31.5914 201.816 31.4834 202.32 31.4834C202.584 31.4834 202.818 31.5194 203.022 31.5914C203.226 31.6634 203.4 31.7534 203.544 31.8614C203.7 31.9694 203.82 32.0834 203.904 32.2034L203.112 33.3914ZM204.897 34.0034C204.897 33.7274 204.993 33.4934 205.185 33.3014C205.389 33.1094 205.623 33.0134 205.887 33.0134C206.163 33.0134 206.397 33.1094 206.589 33.3014C206.781 33.4934 206.877 33.7274 206.877 34.0034C206.877 34.2674 206.781 34.5014 206.589 34.7054C206.397 34.8974 206.163 34.9934 205.887 34.9934C205.623 34.9934 205.389 34.8974 205.185 34.7054C204.993 34.5014 204.897 34.2674 204.897 34.0034ZM205.167 37.4234H206.607V45.7034H205.167V37.4234ZM209.015 46.2434H210.473C210.473 46.6394 210.581 47.0054 210.797 47.3414C211.013 47.6894 211.319 47.9654 211.715 48.1694C212.111 48.3854 212.579 48.4934 213.119 48.4934C213.539 48.4934 213.953 48.3914 214.361 48.1874C214.769 47.9834 215.105 47.6594 215.369 47.2154C215.645 46.7834 215.783 46.2194 215.783 45.5234V37.4234H217.223V45.5234C217.223 46.4714 217.025 47.2634 216.629 47.8994C216.233 48.5474 215.723 49.0334 215.099 49.3574C214.475 49.6814 213.815 49.8434 213.119 49.8434C212.315 49.8434 211.601 49.6934 210.977 49.3934C210.365 49.0934 209.885 48.6674 209.537 48.1154C209.189 47.5754 209.015 46.9514 209.015 46.2434ZM208.853 41.5634C208.853 40.6634 209.039 39.8954 209.411 39.2594C209.783 38.6114 210.281 38.1134 210.905 37.7654C211.529 37.4174 212.213 37.2434 212.957 37.2434C213.653 37.2434 214.259 37.4174 214.775 37.7654C215.291 38.1134 215.693 38.6114 215.981 39.2594C216.281 39.8954 216.431 40.6634 216.431 41.5634C216.431 42.4514 216.281 43.2194 215.981 43.8674C215.693 44.5154 215.291 45.0134 214.775 45.3614C214.259 45.7094 213.653 45.8834 212.957 45.8834C212.213 45.8834 211.529 45.7094 210.905 45.3614C210.281 45.0134 209.783 44.5154 209.411 43.8674C209.039 43.2194 208.853 42.4514 208.853 41.5634ZM210.311 41.5634C210.311 42.1994 210.437 42.7394 210.689 43.1834C210.953 43.6274 211.301 43.9634 211.733 44.1914C212.165 44.4194 212.633 44.5334 213.137 44.5334C213.557 44.5334 213.971 44.4194 214.379 44.1914C214.787 43.9634 215.123 43.6274 215.387 43.1834C215.651 42.7394 215.783 42.1994 215.783 41.5634C215.783 41.0834 215.705 40.6634 215.549 40.3034C215.393 39.9314 215.183 39.6194 214.919 39.3674C214.667 39.1154 214.385 38.9234 214.073 38.7914C213.761 38.6594 213.449 38.5934 213.137 38.5934C212.633 38.5934 212.165 38.7074 211.733 38.9354C211.301 39.1634 210.953 39.4994 210.689 39.9434C210.437 40.3874 210.311 40.9274 210.311 41.5634ZM221.278 42.4634C221.278 43.1234 221.428 43.6334 221.728 43.9934C222.028 44.3534 222.466 44.5334 223.042 44.5334C223.462 44.5334 223.828 44.4494 224.14 44.2814C224.464 44.1014 224.71 43.8554 224.878 43.5434C225.058 43.2314 225.148 42.8714 225.148 42.4634V37.4234H226.588V45.7034H225.148V44.4074C224.872 44.8994 224.53 45.2714 224.122 45.5234C223.714 45.7634 223.234 45.8834 222.682 45.8834C221.818 45.8834 221.128 45.5894 220.612 45.0014C220.096 44.4134 219.838 43.6274 219.838 42.6434V37.4234H221.278V42.4634ZM230.735 37.4234V45.7034H229.295V37.4234H230.735ZM233.237 39.0074C233.045 38.8634 232.871 38.7614 232.715 38.7014C232.559 38.6294 232.361 38.5934 232.121 38.5934C231.761 38.5934 231.479 38.6834 231.275 38.8634C231.071 39.0434 230.927 39.2894 230.843 39.6014C230.771 39.9134 230.735 40.2674 230.735 40.6634H230.087C230.087 40.0034 230.201 39.4214 230.429 38.9174C230.669 38.4014 230.975 37.9934 231.347 37.6934C231.719 37.3934 232.097 37.2434 232.481 37.2434C232.781 37.2434 233.057 37.2854 233.309 37.3694C233.573 37.4414 233.813 37.5914 234.029 37.8194L233.237 39.0074ZM236.113 43.1474C236.113 43.4594 236.185 43.7294 236.329 43.9574C236.485 44.1854 236.695 44.3594 236.959 44.4794C237.235 44.5874 237.547 44.6414 237.895 44.6414C238.339 44.6414 238.735 44.5514 239.083 44.3714C239.443 44.1914 239.725 43.9394 239.929 43.6154C240.145 43.2794 240.253 42.8954 240.253 42.4634L240.541 43.5434C240.541 44.0714 240.379 44.5094 240.055 44.8574C239.743 45.2054 239.353 45.4634 238.885 45.6314C238.429 45.7994 237.973 45.8834 237.517 45.8834C237.013 45.8834 236.539 45.7814 236.095 45.5774C235.663 45.3614 235.315 45.0554 235.051 44.6594C234.787 44.2634 234.655 43.7834 234.655 43.2194C234.655 42.4154 234.937 41.7734 235.501 41.2934C236.077 40.8014 236.875 40.5554 237.895 40.5554C238.495 40.5554 238.993 40.6274 239.389 40.7714C239.797 40.9034 240.121 41.0594 240.361 41.2394C240.601 41.4074 240.763 41.5454 240.847 41.6534V42.4994C240.427 42.2114 239.995 42.0074 239.551 41.8874C239.107 41.7554 238.633 41.6894 238.129 41.6894C237.661 41.6894 237.277 41.7494 236.977 41.8694C236.689 41.9894 236.473 42.1574 236.329 42.3734C236.185 42.5894 236.113 42.8474 236.113 43.1474ZM235.897 39.3314L235.195 38.2694C235.507 38.0414 235.933 37.8134 236.473 37.5854C237.025 37.3574 237.685 37.2434 238.453 37.2434C239.101 37.2434 239.665 37.3454 240.145 37.5494C240.637 37.7414 241.015 38.0234 241.279 38.3954C241.555 38.7674 241.693 39.2234 241.693 39.7634V45.7034H240.253V39.9614C240.253 39.6734 240.205 39.4394 240.109 39.2594C240.013 39.0674 239.875 38.9174 239.695 38.8094C239.527 38.7014 239.329 38.6234 239.101 38.5754C238.873 38.5274 238.633 38.5034 238.381 38.5034C237.973 38.5034 237.601 38.5514 237.265 38.6474C236.941 38.7434 236.665 38.8574 236.437 38.9894C236.209 39.1214 236.029 39.2354 235.897 39.3314ZM248.181 38.7734H243.591V37.4234H250.791L245.661 44.3534H250.431V45.7034H243.051L248.181 38.7734ZM252.411 34.0034C252.411 33.7274 252.507 33.4934 252.699 33.3014C252.903 33.1094 253.137 33.0134 253.401 33.0134C253.677 33.0134 253.911 33.1094 254.103 33.3014C254.295 33.4934 254.391 33.7274 254.391 34.0034C254.391 34.2674 254.295 34.5014 254.103 34.7054C253.911 34.8974 253.677 34.9934 253.401 34.9934C253.137 34.9934 252.903 34.8974 252.699 34.7054C252.507 34.5014 252.411 34.2674 252.411 34.0034ZM252.681 37.4234H254.121V45.7034H252.681V37.4234ZM256.366 41.5634C256.366 40.7234 256.552 39.9794 256.924 39.3314C257.308 38.6834 257.824 38.1734 258.472 37.8014C259.12 37.4294 259.846 37.2434 260.65 37.2434C261.466 37.2434 262.192 37.4294 262.828 37.8014C263.476 38.1734 263.986 38.6834 264.358 39.3314C264.742 39.9794 264.934 40.7234 264.934 41.5634C264.934 42.3914 264.742 43.1354 264.358 43.7954C263.986 44.4434 263.476 44.9534 262.828 45.3254C262.192 45.6974 261.466 45.8834 260.65 45.8834C259.846 45.8834 259.12 45.6974 258.472 45.3254C257.824 44.9534 257.308 44.4434 256.924 43.7954C256.552 43.1354 256.366 42.3914 256.366 41.5634ZM257.824 41.5634C257.824 42.1394 257.944 42.6494 258.184 43.0934C258.436 43.5374 258.772 43.8914 259.192 44.1554C259.624 44.4074 260.11 44.5334 260.65 44.5334C261.19 44.5334 261.67 44.4074 262.09 44.1554C262.522 43.8914 262.858 43.5374 263.098 43.0934C263.35 42.6494 263.476 42.1394 263.476 41.5634C263.476 40.9874 263.35 40.4774 263.098 40.0334C262.858 39.5774 262.522 39.2234 262.09 38.9714C261.67 38.7194 261.19 38.5934 260.65 38.5934C260.11 38.5934 259.624 38.7194 259.192 38.9714C258.772 39.2234 258.436 39.5774 258.184 40.0334C257.944 40.4774 257.824 40.9874 257.824 41.5634ZM272.223 40.6634C272.223 39.9794 272.073 39.4634 271.773 39.1154C271.473 38.7674 271.035 38.5934 270.459 38.5934C270.039 38.5934 269.667 38.6834 269.343 38.8634C269.031 39.0314 268.785 39.2714 268.605 39.5834C268.437 39.8954 268.353 40.2554 268.353 40.6634V45.7034H266.913V37.4234H268.353V38.7194C268.629 38.2154 268.971 37.8434 269.379 37.6034C269.799 37.3634 270.279 37.2434 270.819 37.2434C271.695 37.2434 272.385 37.5374 272.889 38.1254C273.405 38.7014 273.663 39.4874 273.663 40.4834V45.7034H272.223V40.6634ZM279.574 45.8834C278.806 45.8834 278.122 45.7034 277.522 45.3434C276.934 44.9714 276.472 44.4614 276.136 43.8134C275.812 43.1654 275.65 42.4154 275.65 41.5634C275.65 40.6994 275.818 39.9434 276.154 39.2954C276.502 38.6474 276.982 38.1434 277.594 37.7834C278.218 37.4234 278.938 37.2434 279.754 37.2434C280.57 37.2434 281.266 37.4174 281.842 37.7654C282.43 38.1014 282.88 38.5874 283.192 39.2234C283.504 39.8594 283.66 40.6154 283.66 41.4914C283.66 41.5754 283.654 41.6654 283.642 41.7614C283.642 41.8454 283.642 41.8994 283.642 41.9234H276.568V40.6994H282.508L281.932 41.5274C281.968 41.4674 282.004 41.3774 282.04 41.2574C282.076 41.1254 282.094 41.0174 282.094 40.9334C282.094 40.4414 281.992 40.0154 281.788 39.6554C281.596 39.2954 281.326 39.0134 280.978 38.8094C280.63 38.6054 280.222 38.5034 279.754 38.5034C279.202 38.5034 278.728 38.6234 278.332 38.8634C277.948 39.0914 277.648 39.4274 277.432 39.8714C277.228 40.3034 277.12 40.8374 277.108 41.4734C277.108 42.1214 277.21 42.6734 277.414 43.1294C277.618 43.5854 277.918 43.9334 278.314 44.1734C278.71 44.4134 279.19 44.5334 279.754 44.5334C280.318 44.5334 280.816 44.4134 281.248 44.1734C281.68 43.9214 282.046 43.5434 282.346 43.0394L283.516 43.7774C283.084 44.4734 282.538 45.0014 281.878 45.3614C281.23 45.7094 280.462 45.8834 279.574 45.8834Z" fill="#1D2125"/>
<defs>
<filter id="filter0_d_805_7837" x="718.5" y="0.5" width="416" height="84" filterUnits="userSpaceOnUse" color-interpolation-filters="sRGB">
<feFlood flood-opacity="0" result="BackgroundImageFix"/>
<feColorMatrix in="SourceAlpha" type="matrix" values="0 0 0 0 0 0 0 0 0 0 0 0 0 0 0 0 0 0 127 0" result="hardAlpha"/>
<feOffset dy="3"/>
<feGaussianBlur stdDeviation="7.5"/>
<feComposite in2="hardAlpha" operator="out"/>
<feColorMatrix type="matrix" values="0 0 0 0 0 0 0 0 0 0 0 0 0 0 0 0 0 0 0.04 0"/>
<feBlend mode="normal" in2="BackgroundImageFix" result="effect1_dropShadow_805_7837"/>
<feBlend mode="normal" in="SourceGraphic" in2="effect1_dropShadow_805_7837" result="shape"/>
</filter>
<filter id="filter1_d_805_7837" x="363.5" y="0.5" width="416.406" height="84" filterUnits="userSpaceOnUse" color-interpolation-filters="sRGB">
<feFlood flood-opacity="0" result="BackgroundImageFix"/>
<feColorMatrix in="SourceAlpha" type="matrix" values="0 0 0 0 0 0 0 0 0 0 0 0 0 0 0 0 0 0 127 0" result="hardAlpha"/>
<feOffset dy="3"/>
<feGaussianBlur stdDeviation="7.5"/>
<feComposite in2="hardAlpha" operator="out"/>
<feColorMatrix type="matrix" values="0 0 0 0 0 0 0 0 0 0 0 0 0 0 0 0 0 0 0.04 0"/>
<feBlend mode="normal" in2="BackgroundImageFix" result="effect1_dropShadow_805_7837"/>
<feBlend mode="normal" in="SourceGraphic" in2="effect1_dropShadow_805_7837" result="shape"/>
</filter>
<filter id="filter2_d_805_7837" x="0.5" y="0.5" width="416.406" height="84" filterUnits="userSpaceOnUse" color-interpolation-filters="sRGB">
<feFlood flood-opacity="0" result="BackgroundImageFix"/>
<feColorMatrix in="SourceAlpha" type="matrix" values="0 0 0 0 0 0 0 0 0 0 0 0 0 0 0 0 0 0 127 0" result="hardAlpha"/>
<feOffset dy="3"/>
<feGaussianBlur stdDeviation="7.5"/>
<feComposite in2="hardAlpha" operator="out"/>
<feColorMatrix type="matrix" values="0 0 0 0 0 0 0 0 0 0 0 0 0 0 0 0 0 0 0.04 0"/>
<feBlend mode="normal" in2="BackgroundImageFix" result="effect1_dropShadow_805_7837"/>
<feBlend mode="normal" in="SourceGraphic" in2="effect1_dropShadow_805_7837" result="shape"/>
</filter>
</defs>
</svg>
