<svg width="10" height="10" viewBox="0 0 10 10" fill="none" xmlns="http://www.w3.org/2000/svg">
<path d="M4.7716 9.55198C7.40687 9.55198 9.54319 7.41567 9.54319 4.78039C9.54319 2.14511 7.40687 0.00878906 4.7716 0.00878906C2.13632 0.00878906 0 2.14511 0 4.78039C0 7.41567 2.13632 9.55198 4.7716 9.55198Z" fill="url(#paint0_radial_929_3058)"/>
<path opacity="0.2" d="M4.7716 0.248087C7.27066 0.248087 9.30389 2.28132 9.30389 4.78039C9.30389 7.27945 7.27066 9.31268 4.7716 9.31268C2.27253 9.31268 0.239298 7.27945 0.239298 4.78039C0.239298 2.28132 2.27253 0.248087 4.7716 0.248087ZM4.7716 0.00878906C2.13613 0.00878906 0 2.14572 0 4.78039C0 7.41505 2.13613 9.55198 4.7716 9.55198C7.40706 9.55198 9.54319 7.41585 9.54319 4.78039C9.54319 2.14492 7.40626 0.00878906 4.7716 0.00878906Z" fill="#434343"/>
<path d="M4.77227 8.10343C6.60753 8.10343 8.09531 6.61565 8.09531 4.78038C8.09531 2.94512 6.60753 1.45734 4.77227 1.45734C2.937 1.45734 1.44922 2.94512 1.44922 4.78038C1.44922 6.61565 2.937 8.10343 4.77227 8.10343Z" fill="#FEFCE9"/>
<path d="M4.77313 6.91087C5.94979 6.91087 6.90367 5.957 6.90367 4.78033C6.90367 3.60366 5.94979 2.64978 4.77313 2.64978C3.59646 2.64978 2.64258 3.60366 2.64258 4.78033C2.64258 5.957 3.59646 6.91087 4.77313 6.91087Z" fill="url(#paint1_radial_929_3058)"/>
<path d="M4.76978 5.41933C5.12265 5.41933 5.40871 5.13327 5.40871 4.7804C5.40871 4.42754 5.12265 4.14148 4.76978 4.14148C4.41692 4.14148 4.13086 4.42754 4.13086 4.7804C4.13086 5.13327 4.41692 5.41933 4.76978 5.41933Z" fill="#FEFCE9"/>
<path d="M8.44429 1.13102L8.47221 0.457793C8.48497 0.154682 8.21536 -0.059888 7.91624 0.0150919L7.36107 0.153087C7.16963 0.200946 7.01648 0.35649 6.97261 0.548726L6.36719 3.20812L6.37197 3.20573L8.44589 1.13181L8.44429 1.13102Z" fill="#09BCD4"/>
<path d="M8.44624 1.13108L9.11947 1.10316C9.42258 1.0904 9.63715 1.36 9.56217 1.65913L9.42417 2.2143C9.37631 2.40573 9.22077 2.55889 9.02854 2.60276L6.36914 3.20818L6.37153 3.20339L8.44545 1.12948L8.44624 1.13108Z" fill="#38A4DD"/>
<path d="M4.87756 4.87049C4.76589 4.9702 4.61034 4.81465 4.70925 4.70298L7.70287 1.39668C7.83448 1.26507 8.04825 1.26507 8.17987 1.39668C8.31148 1.5283 8.31148 1.74207 8.17987 1.87368L4.87756 4.87049Z" fill="#1B87C9"/>
<path opacity="0.2" d="M8.03587 0.159532C8.11484 0.159532 8.18663 0.189045 8.23847 0.243286C8.29032 0.296729 8.31665 0.370911 8.31345 0.451475L8.28554 1.1231C8.28394 1.15421 8.29192 1.18452 8.30707 1.21005C8.31425 1.22201 8.32223 1.23238 8.3318 1.24196C8.36131 1.27227 8.40279 1.29061 8.44587 1.29061H8.45225L9.12388 1.26269H9.13744C9.22677 1.26269 9.30495 1.29939 9.35679 1.36559C9.41103 1.43419 9.42858 1.52752 9.40545 1.62005L9.26745 2.17522C9.23475 2.30683 9.12388 2.41611 8.99146 2.44642L6.78674 2.94895C6.75962 2.95533 6.73489 2.96809 6.71495 2.98644L5.38445 4.19569L6.58892 2.86519C6.60726 2.84525 6.62002 2.82052 6.62641 2.7934L7.12973 0.583886C7.16004 0.451475 7.26852 0.3406 7.40093 0.307896L7.9561 0.169901C7.98243 0.162722 8.00955 0.159532 8.03587 0.159532ZM8.03587 0C7.99678 0 7.9569 0.00478596 7.91702 0.0151555L7.36185 0.15315C7.17041 0.20101 7.01726 0.356554 6.97339 0.548789L6.47006 2.75831L4.70963 4.7022C4.63226 4.78914 4.70883 4.90161 4.79897 4.90161C4.82529 4.90161 4.85241 4.89204 4.87714 4.86971L6.82263 3.10529L9.02736 2.60276C9.2188 2.55889 9.37514 2.40574 9.423 2.2143L9.56099 1.65913C9.63358 1.36639 9.43018 1.10316 9.13823 1.10316C9.13185 1.10316 9.12467 1.10316 9.1175 1.10396L8.44587 1.13188H8.44427V1.13028L8.47219 0.458654C8.48336 0.195426 8.28394 0 8.03587 0Z" fill="#434343"/>
<defs>
<radialGradient id="paint0_radial_929_3058" cx="0" cy="0" r="1" gradientUnits="userSpaceOnUse" gradientTransform="translate(3.408 2.54399) scale(4.96)">
<stop offset="0.8338" stop-color="#F1B51F"/>
</radialGradient>
<radialGradient id="paint1_radial_929_3058" cx="0" cy="0" r="1" gradientUnits="userSpaceOnUse" gradientTransform="translate(4.36137 3.95762) scale(2.44498)">
<stop offset="0.8338" stop-color="#F1B51F"/>
</radialGradient>
</defs>
</svg>
