<svg width="21" height="24" viewBox="0 0 21 24" fill="none" xmlns="http://www.w3.org/2000/svg">
<rect x="18.5352" y="12.5454" width="2.63952" height="10.9715" transform="rotate(40 18.5352 12.5454)" fill="#FCC63D"/>
<path d="M0.707031 5.2C0.707031 4.09543 1.60246 3.2 2.70703 3.2H17.407C18.5116 3.2 19.407 4.09543 19.407 5.2V11.2396C19.407 11.7294 19.2273 12.2022 18.9018 12.5683L15.007 16.95L11.7428 20.2142C11.3677 20.5893 10.859 20.8 10.3286 20.8H2.70703C1.60246 20.8 0.707031 19.9046 0.707031 18.8V5.2Z" fill="#FCC63D"/>
<path d="M11.37 20.8H3.95669C2.81921 20.8 2.25046 20.8 1.816 20.5602C1.43383 20.3493 1.12312 20.0127 0.928404 19.5988C0.707031 19.1282 0.707031 18.5121 0.707031 17.28V6.72C0.707031 5.48789 0.707031 4.87182 0.928404 4.40122C1.12312 3.98726 1.43383 3.6507 1.816 3.43979C2.25046 3.2 2.81921 3.2 3.95669 3.2H15.7367C16.8742 3.2 17.443 3.2 17.8774 3.43979C18.2596 3.6507 18.5703 3.98726 18.765 4.40122C18.9864 4.87182 18.9864 5.48789 18.9864 6.72V12.55M4.76911 1V3.2M14.9243 1V3.2M0.707031 7.6H18.9864M11.37 12.0001L4.76911 12M7.81567 16.4001L4.76911 16.4M11.37 23L13.7635 22.0045C13.9427 21.9657 14.0324 21.9462 14.1159 21.9107C14.1902 21.8792 14.2608 21.8383 14.3261 21.7889C14.3998 21.7332 14.4644 21.6633 14.5937 21.5231C14.5937 21.5231 19.3962 15.9075 19.957 15.3C20.5179 14.6925 20.5179 13.7075 19.957 13.1C19.3962 12.4925 18.4869 12.4925 17.926 13.1C17.3651 13.7075 12.5627 19.3231 12.5627 19.3231C12.4333 19.4633 12.3687 19.5332 12.3174 19.6131C12.2718 19.6838 12.234 19.7603 12.2049 19.8407C12.1721 19.9312 12.1542 20.0284 12.1183 20.2225L11.37 23Z" stroke="#1D2125" stroke-linecap="round" stroke-linejoin="round"/>
</svg>
