<svg width="20" height="22" viewBox="0 0 20 22" fill="none" xmlns="http://www.w3.org/2000/svg">
<path d="M10.6936 19H3.95424C2.92016 19 2.40312 19 2.00815 18.782C1.66072 18.5903 1.37826 18.2843 1.20125 17.908C1 17.4802 1 16.9201 1 15.8V6.2C1 5.0799 1 4.51984 1.20125 4.09202C1.37826 3.71569 1.66072 3.40973 2.00815 3.21799C2.40312 3 2.92016 3 3.95424 3H14.6634C15.6974 3 16.2145 3 16.6095 3.21799C16.9569 3.40973 17.2394 3.71569 17.4163 4.09202C17.6176 4.51984 17.6176 5.0799 17.6176 6.2V11.5M4.6928 1V3M13.9248 1V3M1 7H17.6176M10.6936 11.0001L4.6928 11M7.4624 15.0001L4.6928 15M10.6936 21L12.8695 20.095C13.0324 20.0597 13.1139 20.042 13.1899 20.0097C13.2574 19.9811 13.3216 19.9439 13.3809 19.899C13.448 19.8484 13.5067 19.7848 13.6243 19.6574C13.6243 19.6574 17.9901 14.5523 18.5 14C19.0099 13.4477 19.0099 12.5523 18.5 12C17.9901 11.4477 17.1635 11.4477 16.6536 12C16.1437 12.5523 11.7779 17.6574 11.7779 17.6574C11.6603 17.7848 11.6016 17.8484 11.5548 17.921C11.5134 17.9853 11.479 18.0548 11.4526 18.1279C11.4228 18.2102 11.4065 18.2985 11.3739 18.475L10.6936 21Z" stroke="#1D2125" stroke-width="1.3" stroke-linecap="round" stroke-linejoin="round"/>
</svg>
