<svg width="22" height="24" viewBox="0 0 22 24" fill="none" xmlns="http://www.w3.org/2000/svg">
<path d="M19.0254 12.5375L21.0474 14.2342L14.0212 22.4744L11.9997 22.5L12.0189 20.9772L19.0254 12.5375Z" fill="#FCC63D"/>
<path d="M1 5.42725C1 4.32268 1.89543 3.42725 3 3.42725H17.7C18.8046 3.42725 19.7 4.32268 19.7 5.42725V11.4668C19.7 11.9567 19.5202 12.4295 19.1948 12.7956L15.3 17.1772L12.0358 20.4415C11.6607 20.8165 11.152 21.0272 10.6216 21.0272H3C1.89543 21.0272 1 20.1318 1 19.0272V5.42725Z" fill="#FCC63D"/>
<path d="M11.663 21.0271H4.24966C3.11218 21.0271 2.54343 21.0271 2.10897 20.7873C1.7268 20.5764 1.41609 20.2398 1.22137 19.8259C1 19.3553 1 18.7392 1 17.5071V6.94705C1 5.71494 1 5.09887 1.22137 4.62827C1.41609 4.21431 1.7268 3.87775 2.10897 3.66684C2.54343 3.42705 3.11218 3.42705 4.24966 3.42705H16.0297C17.1672 3.42705 17.736 3.42705 18.1704 3.66684C18.5525 3.87775 18.8633 4.21431 19.058 4.62827C19.2793 5.09887 19.2793 5.71494 19.2793 6.94705V12.7771M5.06208 1.22705V3.42705M15.2173 1.22705V3.42705M1 7.82705H19.2793M11.663 12.2272L5.06208 12.2271M8.10863 16.6272L5.06208 16.6271M11.663 23.2271L14.0564 22.2316C14.2357 22.1927 14.3253 22.1733 14.4089 22.1377C14.4831 22.1063 14.5537 22.0653 14.619 22.016C14.6928 21.9603 14.7573 21.8903 14.8867 21.7502C14.8867 21.7502 19.6891 16.1346 20.25 15.5271C20.8109 14.9195 20.8109 13.9346 20.25 13.3271C19.6891 12.7195 18.7798 12.7195 18.219 13.3271C17.6581 13.9346 12.8557 19.5502 12.8557 19.5502C12.7263 19.6903 12.6617 19.7603 12.6103 19.8402C12.5647 19.9109 12.527 19.9873 12.4979 20.0677C12.4651 20.1583 12.4471 20.2554 12.4113 20.4496L11.663 23.2271Z" stroke="#21225F" stroke-width="1.1" stroke-linecap="round" stroke-linejoin="round"/>
</svg>
