<svg width="20" height="22" viewBox="0 0 20 22" fill="none" xmlns="http://www.w3.org/2000/svg">
<path d="M11.0334 19.2271H4.29408C3.26001 19.2271 2.74296 19.2271 2.348 19.0091C2.00057 18.8174 1.71811 18.5114 1.54109 18.1351C1.33984 17.7073 1.33984 17.1472 1.33984 16.0271V6.42705C1.33984 5.30695 1.33984 4.74689 1.54109 4.31907C1.71811 3.94274 2.00057 3.63678 2.348 3.44504C2.74296 3.22705 3.26001 3.22705 4.29408 3.22705H15.0032C16.0373 3.22705 16.5544 3.22705 16.9493 3.44504C17.2967 3.63678 17.5792 3.94274 17.7562 4.31907C17.9574 4.74689 17.9574 5.30695 17.9574 6.42705V11.7271M5.03264 1.22705V3.22705M14.2646 1.22705V3.22705M1.33984 7.22705H17.9574M11.0334 11.2272L5.03264 11.2271M7.80224 15.2271L5.03264 15.2271M11.0334 21.2271L13.2093 20.3221C13.3723 20.2868 13.4538 20.2691 13.5298 20.2368C13.5973 20.2082 13.6614 20.171 13.7208 20.1261C13.7878 20.0755 13.8465 20.0119 13.9641 19.8845C13.9641 19.8845 18.33 14.7794 18.8398 14.2271C19.3497 13.6748 19.3497 12.7794 18.8398 12.2271C18.33 11.6748 17.5033 11.6748 16.9934 12.2271C16.4836 12.7794 12.1177 17.8845 12.1177 17.8845C12.0001 18.0119 11.9414 18.0755 11.8947 18.1481C11.8532 18.2124 11.8189 18.2818 11.7925 18.3549C11.7627 18.4372 11.7463 18.5256 11.7137 18.7021L11.0334 21.2271Z" stroke="#21225F" stroke-width="1.1" stroke-linecap="round" stroke-linejoin="round"/>
</svg>
