<svg width="12" height="13" viewBox="0 0 12 13" fill="none" xmlns="http://www.w3.org/2000/svg">
<path d="M8.10937 8.14047L5.68722 10.5626L3.26507 8.14047C1.44973 8.21918 0 9.70446 0 11.5376V11.7813C0 12.4541 0.545872 13 1.21869 13H10.1558C10.8286 13 11.3744 12.4541 11.3744 11.7813V11.5376C11.3744 9.70446 9.92471 8.21918 8.10937 8.14047ZM0.345296 2.02671L0.507788 2.06479V3.54753C0.330062 3.65417 0.203115 3.83951 0.203115 4.06294C0.203115 4.27621 0.319906 4.45393 0.484937 4.56311L0.0888628 6.14487C0.0457009 6.32005 0.142181 6.50032 0.281822 6.50032H1.3431C1.48274 6.50032 1.57922 6.32005 1.53606 6.14487L1.13998 4.56311C1.30501 4.45393 1.42181 4.27621 1.42181 4.06294C1.42181 3.83951 1.29486 3.65417 1.11713 3.54753V2.21205L2.79283 2.61574C2.57448 3.05244 2.43738 3.53991 2.43738 4.06294C2.43738 5.85797 3.89219 7.31278 5.68722 7.31278C7.48225 7.31278 8.93706 5.85797 8.93706 4.06294C8.93706 3.53991 8.8025 3.05244 8.58161 2.61574L11.0266 2.02671C11.4887 1.91499 11.4887 1.33866 11.0266 1.22694L6.19247 0.0590303C5.86241 -0.0196768 5.51457 -0.0196768 5.18451 0.0590303L0.345296 1.2244C-0.114252 1.33612 -0.114252 1.91499 0.345296 2.02671Z" fill="#F1B51F"/>
</svg>
