<svg width="26" height="25" viewBox="0 0 26 25" fill="none" xmlns="http://www.w3.org/2000/svg">
<path d="M5.7162 13.255L5.92871 13.7195C6.83795 15.6005 8.2703 17.1794 10.0535 18.2671L10.3846 18.4611C10.5385 18.5476 10.5385 18.7691 10.3846 18.8557C10.2729 18.9185 10.1626 18.9832 10.0535 19.0497C8.2703 20.1374 6.83795 21.7164 5.92871 23.5974L5.7162 24.0617C5.63293 24.2491 5.36706 24.2491 5.2838 24.0617L5.07128 23.5974C4.16205 21.7164 2.7297 20.1374 0.946497 19.0497C0.837434 18.9832 0.727047 18.9185 0.615397 18.8557C0.461534 18.7691 0.461534 18.5476 0.615397 18.4611L0.946497 18.2671C2.7297 17.1794 4.16205 15.6005 5.07128 13.7195L5.2838 13.255C5.36706 13.0677 5.63293 13.0677 5.7162 13.255ZM16.8474 0.41287C16.9684 0.685158 17.0895 0.957283 17.2192 1.2256C18.8104 4.51733 21.317 7.28052 24.4376 9.1839C24.6285 9.30032 24.8216 9.41352 25.0171 9.52348C25.2864 9.67486 25.2864 10.0626 25.0171 10.214C24.8216 10.324 24.6285 10.4371 24.4376 10.5536C21.317 12.4569 18.8104 15.2201 17.2192 18.5119C17.0895 18.7801 16.9684 19.0522 16.8474 19.3246C16.7016 19.6524 16.2364 19.6524 16.0906 19.3246C15.9696 19.0522 15.8485 18.7801 15.7187 18.5119C14.1276 15.2201 11.621 12.4569 8.50038 10.5536C8.30951 10.4371 8.11635 10.324 7.92095 10.214C7.6517 10.0626 7.6517 9.67486 7.92095 9.52348C8.11635 9.41352 8.30951 9.30032 8.50038 9.1839C11.621 7.28052 14.1276 4.51733 15.7187 1.2256C15.8482 0.957708 15.9696 0.685245 16.0906 0.41287C16.2364 0.0850328 16.7016 0.0850328 16.8474 0.41287Z" fill="#6982AB"/>
</svg>
